%TF.GenerationSoftware,KiCad,Pcbnew,10.0.4-17-gee60b9067e*%
%TF.CreationDate,2026-09-13T19:45:10+02:00*%
%TF.ProjectId,ZigbeeTemperaturReaderHW,5a696762-6565-4546-956d-706572617475,rev?*%
%TF.SameCoordinates,Original*%
%TF.FileFunction,Legend,Bot*%
%TF.FilePolarity,Positive*%
%FSLAX46Y46*%
G04 Gerber Fmt 4.6, Leading zero omitted, Abs format (unit mm)*
G04 Created by KiCad (PCBNEW 10.0.4-17-gee60b9067e) date 2026-09-13 19:45:10*
%MOMM*%
%LPD*%
G01*
G04 APERTURE LIST*
%ADD10C,0.100000*%
G04 APERTURE END LIST*
D10*
X156693609Y-95240714D02*
X156741228Y-95383571D01*
X156741228Y-95383571D02*
X156788847Y-95431190D01*
X156788847Y-95431190D02*
X156884085Y-95478809D01*
X156884085Y-95478809D02*
X157026942Y-95478809D01*
X157026942Y-95478809D02*
X157122180Y-95431190D01*
X157122180Y-95431190D02*
X157169800Y-95383571D01*
X157169800Y-95383571D02*
X157217419Y-95288333D01*
X157217419Y-95288333D02*
X157217419Y-94907381D01*
X157217419Y-94907381D02*
X156217419Y-94907381D01*
X156217419Y-94907381D02*
X156217419Y-95240714D01*
X156217419Y-95240714D02*
X156265038Y-95335952D01*
X156265038Y-95335952D02*
X156312657Y-95383571D01*
X156312657Y-95383571D02*
X156407895Y-95431190D01*
X156407895Y-95431190D02*
X156503133Y-95431190D01*
X156503133Y-95431190D02*
X156598371Y-95383571D01*
X156598371Y-95383571D02*
X156645990Y-95335952D01*
X156645990Y-95335952D02*
X156693609Y-95240714D01*
X156693609Y-95240714D02*
X156693609Y-94907381D01*
X156931704Y-95859762D02*
X156931704Y-96335952D01*
X157217419Y-95764524D02*
X156217419Y-96097857D01*
X156217419Y-96097857D02*
X157217419Y-96431190D01*
X156217419Y-96621667D02*
X156217419Y-97193095D01*
X157217419Y-96907381D02*
X156217419Y-96907381D01*
X156312657Y-97478810D02*
X156265038Y-97526429D01*
X156265038Y-97526429D02*
X156217419Y-97621667D01*
X156217419Y-97621667D02*
X156217419Y-97859762D01*
X156217419Y-97859762D02*
X156265038Y-97955000D01*
X156265038Y-97955000D02*
X156312657Y-98002619D01*
X156312657Y-98002619D02*
X156407895Y-98050238D01*
X156407895Y-98050238D02*
X156503133Y-98050238D01*
X156503133Y-98050238D02*
X156645990Y-98002619D01*
X156645990Y-98002619D02*
X157217419Y-97431191D01*
X157217419Y-97431191D02*
X157217419Y-98050238D01*
%TO.C,BAT2*%
X139260000Y-70205000D02*
X176260000Y-70205000D01*
X176260000Y-122205000D01*
X139260000Y-122205000D01*
X139260000Y-70205000D01*
%TD*%
M02*
