M48
; DRILL file KiCad 10.0.4-17-gee60b9067e date 2026-09-13T19:45:18
; FORMAT={-:-/ absolute / metric / decimal}
; #@! TF.CreationDate,2026-09-13T19:45:18+02:00
; #@! TF.GenerationSoftware,Kicad,Pcbnew,10.0.4-17-gee60b9067e
; #@! TF.FileFunction,Plated,1,2,PTH
FMAT,2
METRIC
; #@! TA.AperFunction,Plated,PTH,ViaDrill
T1C0.300
; #@! TA.AperFunction,Plated,PTH,ComponentDrill
T2C0.500
; #@! TA.AperFunction,Plated,PTH,ComponentDrill
T3C0.800
; #@! TA.AperFunction,Plated,PTH,ComponentDrill
T4C0.900
; #@! TA.AperFunction,Plated,PTH,ComponentDrill
T5C1.000
; #@! TA.AperFunction,Plated,PTH,ViaDrill
T6C2.500
%
G90
G05
T1
X141.16Y-86.2
X141.16Y-124.5
X142.315Y-66.02
X142.315Y-78.72
X142.36Y-83.8
X142.36Y-122.9
X142.76Y-126.1
X142.86Y-73.3
X143.79Y-72.364
X144.73Y-71.064
X144.76Y-73.3
X145.26Y-78.6
X145.26Y-82.4
X145.26Y-86.2
X145.265Y-87.61
X145.76Y-71.1
X146.16Y-76.2
X146.16Y-82.4
X146.76Y-71.1
X146.76Y-78.6
X147.66Y-73.6
X147.66Y-83.8
X150.26Y-122.9
X150.76Y-86.4
X150.76Y-89.3
X150.76Y-90.475
X152.06Y-78.7
X152.06Y-86.4
X154.56Y-89.3
X156.285Y-123.5
X159.06Y-92.4
X159.26Y-122.0
X159.26Y-126.1
X160.96Y-89.3
X162.36Y-73.6
X162.36Y-92.4
X162.76Y-122.0
X163.06Y-71.1
X163.06Y-93.9
X164.76Y-89.3
X168.96Y-71.1
X168.96Y-73.6
X170.26Y-122.9
T2
X142.76Y-129.5
X142.76Y-132.0
X147.76Y-124.5
X152.76Y-129.5
X152.76Y-132.0
X162.76Y-129.52
X162.76Y-132.02
X167.76Y-124.52
X172.76Y-129.52
X172.76Y-132.02
T3
X157.76Y-69.205
T4
X150.14Y-60.94
X150.14Y-63.48
X150.14Y-66.02
X150.14Y-68.56
X150.14Y-71.1
X150.14Y-73.64
X150.14Y-76.18
X150.14Y-78.72
X150.14Y-81.26
X165.38Y-60.94
X165.38Y-63.48
X165.38Y-66.02
X165.38Y-68.56
X165.38Y-71.1
X165.38Y-73.64
X165.38Y-76.18
X165.38Y-78.72
X165.38Y-81.26
T5
X142.76Y-124.5
X145.26Y-124.5
X145.76Y-69.205
X147.76Y-129.5
X150.26Y-124.5
X152.76Y-124.5
X153.95Y-93.85
X154.51Y-86.75
X154.51Y-91.25
X156.49Y-93.85
X159.03Y-93.85
X161.01Y-86.75
X161.01Y-91.25
X161.57Y-93.85
X162.76Y-124.52
X165.26Y-124.52
X167.76Y-129.52
X170.26Y-124.52
X172.76Y-124.52
T6
X137.76Y-71.5
X137.76Y-121.5
X157.76Y-64.5
X157.76Y-128.5
X177.76Y-71.5
X177.76Y-121.5
M30
