%TF.GenerationSoftware,KiCad,Pcbnew,10.0.4-17-gee60b9067e*%
%TF.CreationDate,2026-09-13T19:45:10+02:00*%
%TF.ProjectId,ZigbeeTemperaturReaderHW,5a696762-6565-4546-956d-706572617475,rev?*%
%TF.SameCoordinates,Original*%
%TF.FileFunction,Copper,L2,Bot*%
%TF.FilePolarity,Positive*%
%FSLAX46Y46*%
G04 Gerber Fmt 4.6, Leading zero omitted, Abs format (unit mm)*
G04 Created by KiCad (PCBNEW 10.0.4-17-gee60b9067e) date 2026-09-13 19:45:10*
%MOMM*%
%LPD*%
G01*
G04 APERTURE LIST*
G04 Aperture macros list*
%AMRoundRect*
0 Rectangle with rounded corners*
0 $1 Rounding radius*
0 $2 $3 $4 $5 $6 $7 $8 $9 X,Y pos of 4 corners*
0 Add a 4 corners polygon primitive as box body*
4,1,4,$2,$3,$4,$5,$6,$7,$8,$9,$2,$3,0*
0 Add four circle primitives for the rounded corners*
1,1,$1+$1,$2,$3*
1,1,$1+$1,$4,$5*
1,1,$1+$1,$6,$7*
1,1,$1+$1,$8,$9*
0 Add four rect primitives between the rounded corners*
20,1,$1+$1,$2,$3,$4,$5,0*
20,1,$1+$1,$4,$5,$6,$7,0*
20,1,$1+$1,$6,$7,$8,$9,0*
20,1,$1+$1,$8,$9,$2,$3,0*%
G04 Aperture macros list end*
%TA.AperFunction,ComponentPad*%
%ADD10RoundRect,0.225000X-1.175000X-0.525000X1.175000X-0.525000X1.175000X0.525000X-1.175000X0.525000X0*%
%TD*%
%TA.AperFunction,ComponentPad*%
%ADD11R,1.800000X1.800000*%
%TD*%
%TA.AperFunction,ComponentPad*%
%ADD12C,1.800000*%
%TD*%
%TA.AperFunction,ComponentPad*%
%ADD13C,0.700000*%
%TD*%
%TA.AperFunction,ComponentPad*%
%ADD14C,2.000000*%
%TD*%
%TA.AperFunction,ComponentPad*%
%ADD15R,1.508000X1.508000*%
%TD*%
%TA.AperFunction,ComponentPad*%
%ADD16C,1.508000*%
%TD*%
%TA.AperFunction,ComponentPad*%
%ADD17RoundRect,0.300000X-0.700000X0.700000X-0.700000X-0.700000X0.700000X-0.700000X0.700000X0.700000X0*%
%TD*%
%TA.AperFunction,ViaPad*%
%ADD18C,3.000000*%
%TD*%
%TA.AperFunction,ViaPad*%
%ADD19C,0.600000*%
%TD*%
%TA.AperFunction,Conductor*%
%ADD20C,0.200000*%
%TD*%
G04 APERTURE END LIST*
D10*
%TO.P,U1,1,VCC_1*%
%TO.N,unconnected-(U1-VCC-Pad1)*%
X150140000Y-60940000D03*
%TO.P,U1,2,GND_2*%
%TO.N,GND*%
X150140000Y-63480000D03*
%TO.P,U1,3,V3V_3*%
%TO.N,VCC3V3*%
X150140000Y-66020000D03*
%TO.P,U1,4,IO0_4*%
%TO.N,unconnected-(U1-IO0-Pad4)*%
X150140000Y-68560000D03*
%TO.P,U1,5,IO1_5*%
%TO.N,unconnected-(U1-IO1-Pad5)*%
X150140000Y-71100000D03*
%TO.P,U1,6,IO2_6*%
%TO.N,ONE_WIRE*%
X150140000Y-73640000D03*
%TO.P,U1,7,IO3_7*%
%TO.N,SENSOR_POWER*%
X150140000Y-76180000D03*
%TO.P,U1,8,IO4_8*%
%TO.N,PAIRING*%
X150140000Y-78720000D03*
%TO.P,U1,9,IO5_9*%
%TO.N,unconnected-(U1-IO5-Pad9)*%
X150140000Y-81260000D03*
%TO.P,U1,10,IO22_10*%
%TO.N,unconnected-(U1-IO22-Pad10)*%
X165380000Y-81260000D03*
%TO.P,U1,11,IO21_11*%
%TO.N,unconnected-(U1-IO21-Pad11)*%
X165380000Y-78720000D03*
%TO.P,U1,12,IO20_12*%
%TO.N,unconnected-(U1-IO20-Pad12)*%
X165380000Y-76180000D03*
%TO.P,U1,13,IO19_13*%
%TO.N,OLED_SCL*%
X165380000Y-73640000D03*
%TO.P,U1,14,IO18_14*%
%TO.N,OLED_SDA*%
X165380000Y-71100000D03*
%TO.P,U1,15,IO15_15*%
%TO.N,unconnected-(U1-IO15-Pad15)*%
X165380000Y-68560000D03*
%TO.P,U1,16,IO14_16*%
%TO.N,unconnected-(U1-IO14-Pad16)*%
X165380000Y-66020000D03*
%TO.P,U1,17,RX_17*%
%TO.N,unconnected-(U1-RX-Pad17)*%
X165380000Y-63480000D03*
%TO.P,U1,18,TX_18*%
%TO.N,unconnected-(U1-TX-Pad18)*%
X165380000Y-60940000D03*
%TD*%
D11*
%TO.P,OLED2,1,GND_1*%
%TO.N,GND*%
X153950000Y-93850000D03*
D12*
%TO.P,OLED2,2,VCC_2*%
%TO.N,VCC3V3*%
X156490000Y-93850000D03*
%TO.P,OLED2,3,SCL_3*%
%TO.N,OLED_SCL*%
X159030000Y-93850000D03*
%TO.P,OLED2,4,SDA_4*%
%TO.N,OLED_SDA*%
X161570000Y-93850000D03*
%TD*%
D13*
%TO.P,JP1,*%
%TO.N,*%
X142760000Y-132000000D03*
X152760000Y-132000000D03*
X142760000Y-129500000D03*
X152760000Y-129500000D03*
X147760000Y-124500000D03*
D14*
%TO.P,JP1,1*%
%TO.N,GND*%
X147760000Y-129500000D03*
%TO.P,JP1,2*%
%TO.N,unconnected-(JP1-Pad2)*%
X152760000Y-124500000D03*
%TO.P,JP1,3*%
%TO.N,ONE_WIRE*%
X150260000Y-124500000D03*
%TO.P,JP1,4*%
%TO.N,unconnected-(JP1-Pad4)*%
X145260000Y-124500000D03*
%TO.P,JP1,5*%
%TO.N,SENSOR_POWER*%
X142760000Y-124500000D03*
%TD*%
D15*
%TO.P,S2,1*%
%TO.N,PAIRING*%
X154510000Y-91250000D03*
D16*
%TO.P,S2,2*%
X161010000Y-91250000D03*
%TO.P,S2,3*%
%TO.N,GND*%
X154510000Y-86750000D03*
%TO.P,S2,4*%
X161010000Y-86750000D03*
%TD*%
D13*
%TO.P,JP2,*%
%TO.N,*%
X162760000Y-132020000D03*
X172760000Y-132020000D03*
X162760000Y-129520000D03*
X172760000Y-129520000D03*
X167760000Y-124520000D03*
D14*
%TO.P,JP2,1*%
%TO.N,GND*%
X167760000Y-129520000D03*
%TO.P,JP2,2*%
%TO.N,unconnected-(JP2-Pad2)*%
X172760000Y-124520000D03*
%TO.P,JP2,3*%
%TO.N,ONE_WIRE*%
X170260000Y-124520000D03*
%TO.P,JP2,4*%
%TO.N,unconnected-(JP2-Pad4)*%
X165260000Y-124520000D03*
%TO.P,JP2,5*%
%TO.N,SENSOR_POWER*%
X162760000Y-124520000D03*
%TD*%
D17*
%TO.P,BAT2,1,VCC4V5_1*%
%TO.N,Net-(BAT2-VCC4V5)*%
X145760000Y-69205000D03*
D14*
%TO.P,BAT2,2,GND_2*%
%TO.N,GND*%
X157760000Y-69205000D03*
%TD*%
D18*
%TO.N,*%
X137760000Y-121500000D03*
X177760000Y-121500000D03*
X177760000Y-71500000D03*
X157760000Y-128500000D03*
X137760000Y-71500000D03*
D19*
%TO.N,OLED_SCL*%
X168960000Y-73600000D03*
X159060000Y-92400001D03*
X162360000Y-92400001D03*
X162360000Y-73600000D03*
%TO.N,ONE_WIRE*%
X147660000Y-73600000D03*
X147660000Y-83800000D03*
X142360000Y-122900000D03*
X170260000Y-122900000D03*
X142360000Y-83800000D03*
X150260000Y-122900000D03*
D18*
%TO.N,GND*%
X157760000Y-64500000D03*
D19*
X156285000Y-123500000D03*
X142315000Y-66020000D03*
X142315000Y-78720000D03*
X145265000Y-87610000D03*
X150760000Y-90475000D03*
X143790000Y-72363650D03*
%TO.N,OLED_SDA*%
X163060000Y-71100000D03*
X168960000Y-71100000D03*
X163060000Y-93900000D03*
%TO.N,SENSOR_POWER*%
X162760000Y-122000000D03*
X142760000Y-126100000D03*
X145260000Y-86200000D03*
X146160000Y-76200000D03*
X141160000Y-86200000D03*
X145260000Y-82400000D03*
X159260000Y-122000000D03*
X146160000Y-82400000D03*
X159260000Y-126100000D03*
X141160000Y-124500000D03*
%TO.N,PAIRING*%
X160960000Y-89300000D03*
X150760000Y-86400000D03*
X150760000Y-89300000D03*
X152060000Y-86400000D03*
X164760000Y-89300000D03*
X152060000Y-78700000D03*
X154560000Y-89300000D03*
%TO.N,Net-(BAT2-VCC4V5)*%
X144760000Y-73300000D03*
X145260000Y-78600000D03*
X146760000Y-78600000D03*
X146760000Y-71100000D03*
X145760000Y-71100000D03*
X142860000Y-73300000D03*
X144729800Y-71063650D03*
%TD*%
%TO.N,OLED_SCL*%
D20*
X168960000Y-73600000D02*
X165360000Y-73600000D01*
X162360000Y-92400001D02*
X159060000Y-92400001D01*
X165360000Y-73600000D02*
X162360000Y-73600000D01*
%TO.N,ONE_WIRE*%
X150160000Y-73600000D02*
X147660000Y-73600000D01*
X150260000Y-122900000D02*
X170260000Y-122900000D01*
X142360000Y-122900000D02*
X150260000Y-122900000D01*
X147660000Y-83800000D02*
X142360000Y-83800000D01*
%TO.N,OLED_SDA*%
X168960000Y-71100000D02*
X165360000Y-71100000D01*
X165360000Y-71100000D02*
X163060000Y-71100000D01*
X163060000Y-93900000D02*
X161560000Y-93900000D01*
%TO.N,SENSOR_POWER*%
X159260000Y-122000000D02*
X162760000Y-122000000D01*
X145260000Y-86200000D02*
X141160000Y-86200000D01*
X146160000Y-82400000D02*
X145260000Y-82400000D01*
X142760000Y-126100000D02*
X159260000Y-126100000D01*
X150160000Y-76200000D02*
X146160000Y-76200000D01*
X141160000Y-124500000D02*
X142760000Y-124500000D01*
%TO.N,PAIRING*%
X150760000Y-89300000D02*
X154560000Y-89300000D01*
X150160000Y-78700000D02*
X152060000Y-78700000D01*
X152060000Y-86400000D02*
X150760000Y-86400000D01*
X160960000Y-89300000D02*
X164760000Y-89300000D01*
X154560000Y-91300000D02*
X160960000Y-91300000D01*
%TO.N,Net-(BAT2-VCC4V5)*%
X144760000Y-71100000D02*
X145760000Y-71100000D01*
X145260000Y-78600000D02*
X146760000Y-78600000D01*
X142860000Y-73300000D02*
X144760000Y-73300000D01*
X146760000Y-71100000D02*
X144760000Y-71100000D01*
%TD*%
%TA.AperFunction,Conductor*%
%TO.N,GND*%
G36*
X148563338Y-60020185D02*
G01*
X148609093Y-60072989D01*
X148619037Y-60142147D01*
X148606786Y-60180792D01*
X148555281Y-60281874D01*
X148555281Y-60281879D01*
X148555280Y-60281879D01*
X148539500Y-60381507D01*
X148539500Y-61498494D01*
X148555280Y-61598122D01*
X148555281Y-61598126D01*
X148616472Y-61718220D01*
X148616474Y-61718222D01*
X148616477Y-61718226D01*
X148711775Y-61813524D01*
X148711779Y-61813527D01*
X148711780Y-61813528D01*
X148831874Y-61874719D01*
X148831876Y-61874720D01*
X148831879Y-61874721D01*
X148931507Y-61890500D01*
X148931512Y-61890500D01*
X151348493Y-61890500D01*
X151448122Y-61874721D01*
X151568222Y-61813527D01*
X151568226Y-61813524D01*
X151663524Y-61718226D01*
X151663527Y-61718222D01*
X151724721Y-61598122D01*
X151740500Y-61498494D01*
X151740500Y-60381507D01*
X151724721Y-60281879D01*
X151724720Y-60281876D01*
X151724719Y-60281874D01*
X151673216Y-60180794D01*
X151660320Y-60112125D01*
X151686596Y-60047385D01*
X151743703Y-60007128D01*
X151783701Y-60000500D01*
X163736299Y-60000500D01*
X163803338Y-60020185D01*
X163849093Y-60072989D01*
X163859037Y-60142147D01*
X163846785Y-60180792D01*
X163795281Y-60281874D01*
X163795280Y-60281876D01*
X163795279Y-60281879D01*
X163779500Y-60381507D01*
X163779500Y-61498494D01*
X163795279Y-61598122D01*
X163856473Y-61718222D01*
X163856476Y-61718226D01*
X163951774Y-61813524D01*
X163951778Y-61813527D01*
X164071878Y-61874721D01*
X164171507Y-61890500D01*
X164171512Y-61890500D01*
X166588493Y-61890500D01*
X166688121Y-61874721D01*
X166688124Y-61874720D01*
X166688126Y-61874719D01*
X166808220Y-61813528D01*
X166808221Y-61813527D01*
X166808225Y-61813524D01*
X166903523Y-61718226D01*
X166903526Y-61718222D01*
X166903528Y-61718220D01*
X166964719Y-61598126D01*
X166964720Y-61598122D01*
X166980500Y-61498494D01*
X166980500Y-60381507D01*
X166964720Y-60281879D01*
X166964719Y-60281879D01*
X166964719Y-60281874D01*
X166913215Y-60180794D01*
X166900320Y-60112125D01*
X166926596Y-60047385D01*
X166983703Y-60007128D01*
X167023701Y-60000500D01*
X173157926Y-60000500D01*
X173224965Y-60020185D01*
X173270720Y-60072989D01*
X173281661Y-60116390D01*
X173295900Y-60333647D01*
X173368544Y-60885434D01*
X173368546Y-60885445D01*
X173477120Y-61431280D01*
X173477130Y-61431320D01*
X173621169Y-61968882D01*
X173621173Y-61968897D01*
X173800069Y-62495904D01*
X173800073Y-62495915D01*
X174013055Y-63010099D01*
X174259211Y-63509256D01*
X174537484Y-63991237D01*
X174537500Y-63991262D01*
X174846695Y-64454006D01*
X175185499Y-64895543D01*
X175552471Y-65313994D01*
X175946006Y-65707529D01*
X176364457Y-66074501D01*
X176805994Y-66413305D01*
X177268738Y-66722500D01*
X177268763Y-66722516D01*
X177750744Y-67000789D01*
X178249901Y-67246945D01*
X178764085Y-67459927D01*
X178764096Y-67459931D01*
X179291103Y-67638827D01*
X179291118Y-67638831D01*
X179828680Y-67782870D01*
X179828720Y-67782880D01*
X180374555Y-67891454D01*
X180374566Y-67891456D01*
X180926358Y-67964101D01*
X180926377Y-67964102D01*
X181143610Y-67978341D01*
X181209219Y-68002368D01*
X181251422Y-68058051D01*
X181259500Y-68102075D01*
X181259500Y-124897925D01*
X181239815Y-124964964D01*
X181187011Y-125010719D01*
X181143610Y-125021659D01*
X180926377Y-125035898D01*
X180926358Y-125035899D01*
X180374566Y-125108544D01*
X180374555Y-125108546D01*
X179828720Y-125217120D01*
X179828680Y-125217130D01*
X179291118Y-125361169D01*
X179291103Y-125361173D01*
X178764096Y-125540069D01*
X178764085Y-125540073D01*
X178249901Y-125753055D01*
X177750744Y-125999211D01*
X177268763Y-126277484D01*
X177268738Y-126277500D01*
X176805994Y-126586695D01*
X176364457Y-126925499D01*
X175946006Y-127292471D01*
X175552471Y-127686006D01*
X175185499Y-128104457D01*
X174846695Y-128545994D01*
X174537500Y-129008738D01*
X174537484Y-129008763D01*
X174259211Y-129490744D01*
X174013055Y-129989901D01*
X173800073Y-130504085D01*
X173800069Y-130504096D01*
X173621173Y-131031103D01*
X173621169Y-131031118D01*
X173477130Y-131568680D01*
X173477122Y-131568714D01*
X173453758Y-131686171D01*
X173421373Y-131748082D01*
X173360657Y-131782656D01*
X173290887Y-131778915D01*
X173234216Y-131738049D01*
X173224754Y-131723979D01*
X173216166Y-131709104D01*
X173200509Y-131681985D01*
X173098015Y-131579491D01*
X173098013Y-131579490D01*
X173098011Y-131579488D01*
X172972488Y-131507017D01*
X172972489Y-131507017D01*
X172961006Y-131503940D01*
X172832475Y-131469500D01*
X172687525Y-131469500D01*
X172558993Y-131503940D01*
X172547511Y-131507017D01*
X172421988Y-131579488D01*
X172421982Y-131579493D01*
X172319493Y-131681982D01*
X172319488Y-131681988D01*
X172247017Y-131807511D01*
X172247016Y-131807515D01*
X172209500Y-131947525D01*
X172209500Y-132092475D01*
X172241657Y-132212485D01*
X172247017Y-132232488D01*
X172319488Y-132358011D01*
X172319490Y-132358013D01*
X172319491Y-132358015D01*
X172421985Y-132460509D01*
X172421986Y-132460510D01*
X172421988Y-132460511D01*
X172547511Y-132532982D01*
X172547512Y-132532982D01*
X172547515Y-132532984D01*
X172687525Y-132570500D01*
X172687528Y-132570500D01*
X172832472Y-132570500D01*
X172832475Y-132570500D01*
X172972485Y-132532984D01*
X173098015Y-132460509D01*
X173098808Y-132459715D01*
X173099639Y-132459261D01*
X173104461Y-132455562D01*
X173105037Y-132456313D01*
X173160125Y-132426229D01*
X173229817Y-132431208D01*
X173285753Y-132473075D01*
X173310175Y-132538537D01*
X173309431Y-132563578D01*
X173295900Y-132666353D01*
X173281661Y-132883610D01*
X173257634Y-132949218D01*
X173201950Y-132991422D01*
X173157926Y-132999500D01*
X142362074Y-132999500D01*
X142295035Y-132979815D01*
X142249280Y-132927011D01*
X142238339Y-132883610D01*
X142224100Y-132666352D01*
X142207537Y-132540546D01*
X142218303Y-132471511D01*
X142264683Y-132419255D01*
X142331952Y-132400370D01*
X142398752Y-132420851D01*
X142418152Y-132436675D01*
X142421985Y-132440509D01*
X142547512Y-132512982D01*
X142547513Y-132512982D01*
X142547515Y-132512984D01*
X142687525Y-132550500D01*
X142687528Y-132550500D01*
X142832472Y-132550500D01*
X142832475Y-132550500D01*
X142972485Y-132512984D01*
X142972488Y-132512982D01*
X142972489Y-132512982D01*
X143098012Y-132440511D01*
X143098014Y-132440510D01*
X143098015Y-132440509D01*
X143200509Y-132338015D01*
X143200510Y-132338013D01*
X143200512Y-132338011D01*
X143272983Y-132212488D01*
X143272984Y-132212485D01*
X143310500Y-132072475D01*
X143310500Y-131927525D01*
X152209500Y-131927525D01*
X152209500Y-132072475D01*
X152247016Y-132212485D01*
X152319491Y-132338015D01*
X152421985Y-132440509D01*
X152547512Y-132512982D01*
X152547513Y-132512982D01*
X152547515Y-132512984D01*
X152687525Y-132550500D01*
X152687528Y-132550500D01*
X152832472Y-132550500D01*
X152832475Y-132550500D01*
X152972485Y-132512984D01*
X152972488Y-132512982D01*
X152972489Y-132512982D01*
X153098012Y-132440511D01*
X153098014Y-132440510D01*
X153098015Y-132440509D01*
X153200509Y-132338015D01*
X153200510Y-132338013D01*
X153200512Y-132338011D01*
X153272983Y-132212488D01*
X153272984Y-132212485D01*
X153310500Y-132072475D01*
X153310500Y-131947525D01*
X162209500Y-131947525D01*
X162209500Y-132092475D01*
X162241657Y-132212485D01*
X162247017Y-132232488D01*
X162319488Y-132358011D01*
X162319490Y-132358013D01*
X162319491Y-132358015D01*
X162421985Y-132460509D01*
X162421986Y-132460510D01*
X162421988Y-132460511D01*
X162547511Y-132532982D01*
X162547512Y-132532982D01*
X162547515Y-132532984D01*
X162687525Y-132570500D01*
X162687528Y-132570500D01*
X162832472Y-132570500D01*
X162832475Y-132570500D01*
X162972485Y-132532984D01*
X163098015Y-132460509D01*
X163200509Y-132358015D01*
X163272984Y-132232485D01*
X163310500Y-132092475D01*
X163310500Y-131947525D01*
X163272984Y-131807515D01*
X163244003Y-131757319D01*
X163200511Y-131681988D01*
X163200506Y-131681982D01*
X163098017Y-131579493D01*
X163098011Y-131579488D01*
X162972488Y-131507017D01*
X162972489Y-131507017D01*
X162961006Y-131503940D01*
X162832475Y-131469500D01*
X162687525Y-131469500D01*
X162558993Y-131503940D01*
X162547511Y-131507017D01*
X162421988Y-131579488D01*
X162421982Y-131579493D01*
X162319493Y-131681982D01*
X162319488Y-131681988D01*
X162247017Y-131807511D01*
X162247016Y-131807515D01*
X162209500Y-131947525D01*
X153310500Y-131947525D01*
X153310500Y-131927525D01*
X153272984Y-131787515D01*
X153272985Y-131787515D01*
X153272983Y-131787511D01*
X153200512Y-131661988D01*
X153200507Y-131661982D01*
X153098018Y-131559493D01*
X153098012Y-131559488D01*
X152972489Y-131487017D01*
X152972490Y-131487017D01*
X152930892Y-131475870D01*
X152832475Y-131449500D01*
X152687525Y-131449500D01*
X152547515Y-131487016D01*
X152547512Y-131487017D01*
X152421989Y-131559488D01*
X152421983Y-131559493D01*
X152319494Y-131661982D01*
X152319489Y-131661988D01*
X152264450Y-131757319D01*
X152247016Y-131787515D01*
X152209500Y-131927525D01*
X143310500Y-131927525D01*
X143272984Y-131787515D01*
X143272985Y-131787515D01*
X143272983Y-131787511D01*
X143200512Y-131661988D01*
X143200507Y-131661982D01*
X143098018Y-131559493D01*
X143098012Y-131559488D01*
X142972489Y-131487017D01*
X142972490Y-131487017D01*
X142930892Y-131475870D01*
X142832475Y-131449500D01*
X142687525Y-131449500D01*
X142547515Y-131487016D01*
X142547512Y-131487017D01*
X142421989Y-131559488D01*
X142421987Y-131559490D01*
X142421985Y-131559491D01*
X142319491Y-131661985D01*
X142292287Y-131709104D01*
X142241719Y-131757319D01*
X142173112Y-131770541D01*
X142108248Y-131744573D01*
X142067720Y-131687659D01*
X142063283Y-131671295D01*
X142042878Y-131568714D01*
X142042870Y-131568680D01*
X141898831Y-131031118D01*
X141898827Y-131031103D01*
X141791611Y-130715258D01*
X141719931Y-130504096D01*
X141719927Y-130504085D01*
X141506945Y-129989901D01*
X141260792Y-129490751D01*
X141255392Y-129481399D01*
X141255392Y-129481397D01*
X141224289Y-129427525D01*
X142209500Y-129427525D01*
X142209500Y-129572475D01*
X142247016Y-129712485D01*
X142319491Y-129838015D01*
X142421985Y-129940509D01*
X142547512Y-130012982D01*
X142547513Y-130012982D01*
X142547515Y-130012984D01*
X142687525Y-130050500D01*
X142687528Y-130050500D01*
X142832472Y-130050500D01*
X142832475Y-130050500D01*
X142972485Y-130012984D01*
X142972488Y-130012982D01*
X142972489Y-130012982D01*
X143098012Y-129940511D01*
X143098014Y-129940510D01*
X143098015Y-129940509D01*
X143200509Y-129838015D01*
X143200510Y-129838013D01*
X143200512Y-129838011D01*
X143272983Y-129712488D01*
X143296793Y-129623629D01*
X143310500Y-129572475D01*
X143310500Y-129427525D01*
X143298287Y-129381947D01*
X146260000Y-129381947D01*
X146260000Y-129618052D01*
X146296935Y-129851247D01*
X146369898Y-130075802D01*
X146477082Y-130286163D01*
X146477086Y-130286169D01*
X146537342Y-130369104D01*
X146537342Y-130369105D01*
X147277038Y-129629408D01*
X147294075Y-129692993D01*
X147359901Y-129807007D01*
X147452993Y-129900099D01*
X147567007Y-129965925D01*
X147630592Y-129982962D01*
X146890895Y-130722658D01*
X146973831Y-130782914D01*
X146973837Y-130782918D01*
X147184198Y-130890102D01*
X147408753Y-130963065D01*
X147408752Y-130963065D01*
X147641948Y-131000000D01*
X147878052Y-131000000D01*
X148111248Y-130963065D01*
X148335803Y-130890102D01*
X148546172Y-130782914D01*
X148629106Y-130722658D01*
X148629107Y-130722658D01*
X147889410Y-129982962D01*
X147952993Y-129965925D01*
X148067007Y-129900099D01*
X148160099Y-129807007D01*
X148225925Y-129692993D01*
X148242963Y-129629408D01*
X148982660Y-130369105D01*
X148982662Y-130369104D01*
X149042913Y-130286174D01*
X149150103Y-130075802D01*
X149223066Y-129851247D01*
X149260000Y-129618052D01*
X149260000Y-129427525D01*
X152209500Y-129427525D01*
X152209500Y-129572475D01*
X152247016Y-129712485D01*
X152319491Y-129838015D01*
X152421985Y-129940509D01*
X152547512Y-130012982D01*
X152547513Y-130012982D01*
X152547515Y-130012984D01*
X152687525Y-130050500D01*
X152687528Y-130050500D01*
X152832472Y-130050500D01*
X152832475Y-130050500D01*
X152972485Y-130012984D01*
X152972488Y-130012982D01*
X152972489Y-130012982D01*
X153098012Y-129940511D01*
X153098014Y-129940510D01*
X153098015Y-129940509D01*
X153200509Y-129838015D01*
X153200510Y-129838013D01*
X153200512Y-129838011D01*
X153272983Y-129712488D01*
X153296793Y-129623629D01*
X153310500Y-129572475D01*
X153310500Y-129427525D01*
X153272984Y-129287515D01*
X153272985Y-129287515D01*
X153272983Y-129287511D01*
X153200512Y-129161988D01*
X153200507Y-129161982D01*
X153098018Y-129059493D01*
X153098012Y-129059488D01*
X152972489Y-128987017D01*
X152972490Y-128987017D01*
X152930892Y-128975870D01*
X152832475Y-128949500D01*
X152687525Y-128949500D01*
X152547515Y-128987016D01*
X152547512Y-128987017D01*
X152421989Y-129059488D01*
X152421983Y-129059493D01*
X152319494Y-129161982D01*
X152319489Y-129161988D01*
X152307946Y-129181982D01*
X152247016Y-129287515D01*
X152209500Y-129427525D01*
X149260000Y-129427525D01*
X149260000Y-129381947D01*
X149223066Y-129148752D01*
X149150103Y-128924197D01*
X149042916Y-128713830D01*
X148982660Y-128630894D01*
X148242963Y-129370591D01*
X148225925Y-129307007D01*
X148160099Y-129192993D01*
X148067007Y-129099901D01*
X147952993Y-129034075D01*
X147889409Y-129017037D01*
X148517903Y-128388543D01*
X156059500Y-128388543D01*
X156059500Y-128611457D01*
X156088596Y-128832463D01*
X156146290Y-129047781D01*
X156231595Y-129253726D01*
X156343052Y-129446774D01*
X156478753Y-129623624D01*
X156636376Y-129781247D01*
X156813226Y-129916948D01*
X157006274Y-130028405D01*
X157212219Y-130113710D01*
X157427537Y-130171404D01*
X157648543Y-130200500D01*
X157648550Y-130200500D01*
X157871450Y-130200500D01*
X157871457Y-130200500D01*
X158092463Y-130171404D01*
X158307781Y-130113710D01*
X158513726Y-130028405D01*
X158706774Y-129916948D01*
X158883624Y-129781247D01*
X159041247Y-129623624D01*
X159176372Y-129447525D01*
X162209500Y-129447525D01*
X162209500Y-129592475D01*
X162236434Y-129692993D01*
X162247017Y-129732488D01*
X162319488Y-129858011D01*
X162319490Y-129858013D01*
X162319491Y-129858015D01*
X162421985Y-129960509D01*
X162421986Y-129960510D01*
X162421988Y-129960511D01*
X162547511Y-130032982D01*
X162547512Y-130032982D01*
X162547515Y-130032984D01*
X162687525Y-130070500D01*
X162687528Y-130070500D01*
X162832472Y-130070500D01*
X162832475Y-130070500D01*
X162972485Y-130032984D01*
X163098015Y-129960509D01*
X163200509Y-129858015D01*
X163272984Y-129732485D01*
X163310500Y-129592475D01*
X163310500Y-129447525D01*
X163298287Y-129401947D01*
X166260000Y-129401947D01*
X166260000Y-129638052D01*
X166296934Y-129871247D01*
X166369897Y-130095802D01*
X166477087Y-130306174D01*
X166537338Y-130389104D01*
X166537340Y-130389105D01*
X167277037Y-129649408D01*
X167294075Y-129712993D01*
X167359901Y-129827007D01*
X167452993Y-129920099D01*
X167567007Y-129985925D01*
X167630590Y-130002962D01*
X166890893Y-130742658D01*
X166973828Y-130802914D01*
X167184197Y-130910102D01*
X167408752Y-130983065D01*
X167408751Y-130983065D01*
X167641948Y-131020000D01*
X167878052Y-131020000D01*
X168111247Y-130983065D01*
X168335802Y-130910102D01*
X168546163Y-130802918D01*
X168546169Y-130802914D01*
X168629104Y-130742658D01*
X168629105Y-130742658D01*
X167889408Y-130002962D01*
X167952993Y-129985925D01*
X168067007Y-129920099D01*
X168160099Y-129827007D01*
X168225925Y-129712993D01*
X168242962Y-129649408D01*
X168982658Y-130389105D01*
X168982658Y-130389104D01*
X169042914Y-130306169D01*
X169042918Y-130306163D01*
X169150102Y-130095802D01*
X169223065Y-129871247D01*
X169260000Y-129638052D01*
X169260000Y-129447525D01*
X172209500Y-129447525D01*
X172209500Y-129592475D01*
X172236434Y-129692993D01*
X172247017Y-129732488D01*
X172319488Y-129858011D01*
X172319490Y-129858013D01*
X172319491Y-129858015D01*
X172421985Y-129960509D01*
X172421986Y-129960510D01*
X172421988Y-129960511D01*
X172547511Y-130032982D01*
X172547512Y-130032982D01*
X172547515Y-130032984D01*
X172687525Y-130070500D01*
X172687528Y-130070500D01*
X172832472Y-130070500D01*
X172832475Y-130070500D01*
X172972485Y-130032984D01*
X173098015Y-129960509D01*
X173200509Y-129858015D01*
X173272984Y-129732485D01*
X173310500Y-129592475D01*
X173310500Y-129447525D01*
X173272984Y-129307515D01*
X173206864Y-129192993D01*
X173200511Y-129181988D01*
X173200506Y-129181982D01*
X173098017Y-129079493D01*
X173098011Y-129079488D01*
X172972488Y-129007017D01*
X172972489Y-129007017D01*
X172946301Y-129000000D01*
X172832475Y-128969500D01*
X172687525Y-128969500D01*
X172573699Y-129000000D01*
X172547511Y-129007017D01*
X172421988Y-129079488D01*
X172421982Y-129079493D01*
X172319493Y-129181982D01*
X172319488Y-129181988D01*
X172247017Y-129307511D01*
X172247016Y-129307515D01*
X172209500Y-129447525D01*
X169260000Y-129447525D01*
X169260000Y-129401947D01*
X169223065Y-129168752D01*
X169150102Y-128944197D01*
X169042914Y-128733828D01*
X168982658Y-128650894D01*
X168982658Y-128650893D01*
X168242962Y-129390590D01*
X168225925Y-129327007D01*
X168160099Y-129212993D01*
X168067007Y-129119901D01*
X167952993Y-129054075D01*
X167889409Y-129037037D01*
X168629105Y-128297340D01*
X168629104Y-128297338D01*
X168546174Y-128237087D01*
X168335802Y-128129897D01*
X168111247Y-128056934D01*
X168111248Y-128056934D01*
X167878052Y-128020000D01*
X167641948Y-128020000D01*
X167408752Y-128056934D01*
X167184197Y-128129897D01*
X166973830Y-128237084D01*
X166890894Y-128297340D01*
X167630591Y-129037037D01*
X167567007Y-129054075D01*
X167452993Y-129119901D01*
X167359901Y-129212993D01*
X167294075Y-129327007D01*
X167277037Y-129390591D01*
X166537340Y-128650894D01*
X166477084Y-128733830D01*
X166369897Y-128944197D01*
X166296934Y-129168752D01*
X166260000Y-129401947D01*
X163298287Y-129401947D01*
X163272984Y-129307515D01*
X163206864Y-129192993D01*
X163200511Y-129181988D01*
X163200506Y-129181982D01*
X163098017Y-129079493D01*
X163098011Y-129079488D01*
X162972488Y-129007017D01*
X162972489Y-129007017D01*
X162946301Y-129000000D01*
X162832475Y-128969500D01*
X162687525Y-128969500D01*
X162573699Y-129000000D01*
X162547511Y-129007017D01*
X162421988Y-129079488D01*
X162421982Y-129079493D01*
X162319493Y-129181982D01*
X162319488Y-129181988D01*
X162247017Y-129307511D01*
X162247016Y-129307515D01*
X162209500Y-129447525D01*
X159176372Y-129447525D01*
X159176948Y-129446774D01*
X159288405Y-129253726D01*
X159373710Y-129047781D01*
X159431404Y-128832463D01*
X159460500Y-128611457D01*
X159460500Y-128388543D01*
X159459403Y-128380215D01*
X159456846Y-128360783D01*
X159437927Y-128217087D01*
X159431404Y-128167537D01*
X159373710Y-127952219D01*
X159288405Y-127746274D01*
X159176948Y-127553226D01*
X159041247Y-127376376D01*
X159041242Y-127376370D01*
X158883629Y-127218757D01*
X158883622Y-127218751D01*
X158706782Y-127083058D01*
X158706780Y-127083057D01*
X158706774Y-127083052D01*
X158513726Y-126971595D01*
X158513722Y-126971593D01*
X158307790Y-126886293D01*
X158307783Y-126886291D01*
X158307781Y-126886290D01*
X158092463Y-126828596D01*
X158092457Y-126828595D01*
X158092452Y-126828594D01*
X157871466Y-126799501D01*
X157871463Y-126799500D01*
X157871457Y-126799500D01*
X157648543Y-126799500D01*
X157648537Y-126799500D01*
X157648534Y-126799501D01*
X157427548Y-126828594D01*
X157427543Y-126828595D01*
X157427537Y-126828596D01*
X157212219Y-126886290D01*
X157212217Y-126886291D01*
X157212210Y-126886293D01*
X157006278Y-126971593D01*
X157006274Y-126971595D01*
X156813226Y-127083052D01*
X156813220Y-127083057D01*
X156813218Y-127083058D01*
X156636378Y-127218751D01*
X156636371Y-127218757D01*
X156478758Y-127376370D01*
X156478753Y-127376376D01*
X156343052Y-127553226D01*
X156231595Y-127746274D01*
X156146290Y-127952219D01*
X156088596Y-128167537D01*
X156059500Y-128388543D01*
X148517903Y-128388543D01*
X148629106Y-128277340D01*
X148546170Y-128217084D01*
X148335803Y-128109897D01*
X148111248Y-128036934D01*
X148111249Y-128036934D01*
X147878052Y-128000000D01*
X147641948Y-128000000D01*
X147408753Y-128036934D01*
X147184198Y-128109897D01*
X146973826Y-128217087D01*
X146890896Y-128277338D01*
X146890895Y-128277340D01*
X147630591Y-129017037D01*
X147567007Y-129034075D01*
X147452993Y-129099901D01*
X147359901Y-129192993D01*
X147294075Y-129307007D01*
X147277038Y-129370590D01*
X146537342Y-128630893D01*
X146537342Y-128630894D01*
X146477086Y-128713828D01*
X146369898Y-128924197D01*
X146296935Y-129148752D01*
X146260000Y-129381947D01*
X143298287Y-129381947D01*
X143272984Y-129287515D01*
X143272985Y-129287515D01*
X143272983Y-129287511D01*
X143200512Y-129161988D01*
X143200507Y-129161982D01*
X143098018Y-129059493D01*
X143098012Y-129059488D01*
X142972489Y-128987017D01*
X142972490Y-128987017D01*
X142930892Y-128975870D01*
X142832475Y-128949500D01*
X142687525Y-128949500D01*
X142547515Y-128987016D01*
X142547512Y-128987017D01*
X142421989Y-129059488D01*
X142421983Y-129059493D01*
X142319494Y-129161982D01*
X142319489Y-129161988D01*
X142307946Y-129181982D01*
X142247016Y-129287515D01*
X142209500Y-129427525D01*
X141224289Y-129427525D01*
X140982516Y-129008763D01*
X140982500Y-129008738D01*
X140673310Y-128546002D01*
X140638738Y-128500947D01*
X140561344Y-128400085D01*
X140561344Y-128400084D01*
X140334501Y-128104457D01*
X139967529Y-127686006D01*
X139573994Y-127292471D01*
X139155543Y-126925499D01*
X138714006Y-126586695D01*
X138251262Y-126277500D01*
X138251237Y-126277484D01*
X137769256Y-125999211D01*
X137270099Y-125753055D01*
X136755915Y-125540073D01*
X136755904Y-125540069D01*
X136228897Y-125361173D01*
X136228882Y-125361169D01*
X135691320Y-125217130D01*
X135691280Y-125217120D01*
X135145445Y-125108546D01*
X135145434Y-125108544D01*
X134593642Y-125035899D01*
X134593623Y-125035898D01*
X134376390Y-125021659D01*
X134310781Y-124997632D01*
X134268578Y-124941949D01*
X134260500Y-124897925D01*
X134260500Y-124434108D01*
X140659500Y-124434108D01*
X140659500Y-124565892D01*
X140693608Y-124693186D01*
X140759500Y-124807314D01*
X140852686Y-124900500D01*
X140966814Y-124966392D01*
X141094108Y-125000500D01*
X141094110Y-125000500D01*
X141225890Y-125000500D01*
X141225892Y-125000500D01*
X141353186Y-124966392D01*
X141353191Y-124966389D01*
X141353192Y-124966389D01*
X141406647Y-124935526D01*
X141467314Y-124900500D01*
X141467316Y-124900498D01*
X141470067Y-124898910D01*
X141537967Y-124882436D01*
X141603994Y-124905288D01*
X141644896Y-124956667D01*
X141645241Y-124956491D01*
X141646105Y-124958185D01*
X141646631Y-124958847D01*
X141647451Y-124960823D01*
X141647453Y-124960832D01*
X141733240Y-125129199D01*
X141844310Y-125282073D01*
X141977927Y-125415690D01*
X142130801Y-125526760D01*
X142299168Y-125612547D01*
X142299176Y-125612549D01*
X142301138Y-125613362D01*
X142301777Y-125613876D01*
X142303509Y-125614759D01*
X142303324Y-125615122D01*
X142355549Y-125657194D01*
X142377624Y-125723485D01*
X142361091Y-125789932D01*
X142359503Y-125792683D01*
X142359500Y-125792686D01*
X142293608Y-125906814D01*
X142259500Y-126034108D01*
X142259500Y-126165892D01*
X142293608Y-126293186D01*
X142359500Y-126407314D01*
X142452686Y-126500500D01*
X142566814Y-126566392D01*
X142694108Y-126600500D01*
X142694110Y-126600500D01*
X142825890Y-126600500D01*
X142825892Y-126600500D01*
X142953186Y-126566392D01*
X143067314Y-126500500D01*
X143130995Y-126436819D01*
X143192318Y-126403334D01*
X143218676Y-126400500D01*
X158801324Y-126400500D01*
X158868363Y-126420185D01*
X158889005Y-126436819D01*
X158952686Y-126500500D01*
X159066814Y-126566392D01*
X159194108Y-126600500D01*
X159194110Y-126600500D01*
X159325890Y-126600500D01*
X159325892Y-126600500D01*
X159453186Y-126566392D01*
X159567314Y-126500500D01*
X159660500Y-126407314D01*
X159726392Y-126293186D01*
X159760500Y-126165892D01*
X159760500Y-126034108D01*
X159726392Y-125906814D01*
X159660500Y-125792686D01*
X159567314Y-125699500D01*
X159510250Y-125666554D01*
X159453187Y-125633608D01*
X159376238Y-125612990D01*
X159325892Y-125599500D01*
X159194108Y-125599500D01*
X159066812Y-125633608D01*
X158952686Y-125699500D01*
X158952683Y-125699502D01*
X158889005Y-125763181D01*
X158827682Y-125796666D01*
X158801324Y-125799500D01*
X153370414Y-125799500D01*
X153303375Y-125779815D01*
X153257620Y-125727011D01*
X153247676Y-125657853D01*
X153276701Y-125594297D01*
X153314119Y-125565015D01*
X153389199Y-125526760D01*
X153542073Y-125415690D01*
X153675690Y-125282073D01*
X153786760Y-125129199D01*
X153816669Y-125070500D01*
X153872546Y-124960836D01*
X153930941Y-124781118D01*
X153960500Y-124594486D01*
X153960500Y-124405513D01*
X153930941Y-124218881D01*
X153872546Y-124039163D01*
X153786760Y-123870800D01*
X153690219Y-123737925D01*
X153675690Y-123717927D01*
X153675688Y-123717925D01*
X153675688Y-123717924D01*
X153542076Y-123584312D01*
X153389200Y-123473240D01*
X153314119Y-123434985D01*
X153263323Y-123387010D01*
X153246528Y-123319190D01*
X153269065Y-123253055D01*
X153323780Y-123209603D01*
X153370414Y-123200500D01*
X162188838Y-123200500D01*
X162255877Y-123220185D01*
X162301632Y-123272989D01*
X162311576Y-123342147D01*
X162282551Y-123405703D01*
X162245133Y-123434985D01*
X162130800Y-123493240D01*
X162101744Y-123514351D01*
X161977927Y-123604310D01*
X161977925Y-123604312D01*
X161977924Y-123604312D01*
X161844312Y-123737924D01*
X161844312Y-123737925D01*
X161844310Y-123737927D01*
X161796610Y-123803579D01*
X161733240Y-123890800D01*
X161647454Y-124059163D01*
X161589059Y-124238881D01*
X161559500Y-124425513D01*
X161559500Y-124614486D01*
X161589059Y-124801118D01*
X161647454Y-124980836D01*
X161733240Y-125149199D01*
X161844310Y-125302073D01*
X161977927Y-125435690D01*
X162130801Y-125546760D01*
X162166629Y-125565015D01*
X162299163Y-125632545D01*
X162299165Y-125632545D01*
X162299168Y-125632547D01*
X162395497Y-125663846D01*
X162478881Y-125690940D01*
X162665514Y-125720500D01*
X162665519Y-125720500D01*
X162854486Y-125720500D01*
X163041118Y-125690940D01*
X163220832Y-125632547D01*
X163389199Y-125546760D01*
X163542073Y-125435690D01*
X163675690Y-125302073D01*
X163786760Y-125149199D01*
X163872547Y-124980832D01*
X163892069Y-124920748D01*
X163931507Y-124863073D01*
X163995865Y-124835875D01*
X164064712Y-124847790D01*
X164116187Y-124895034D01*
X164127930Y-124920746D01*
X164142760Y-124966390D01*
X164147454Y-124980834D01*
X164193141Y-125070500D01*
X164233240Y-125149199D01*
X164344310Y-125302073D01*
X164477927Y-125435690D01*
X164630801Y-125546760D01*
X164666629Y-125565015D01*
X164799163Y-125632545D01*
X164799165Y-125632545D01*
X164799168Y-125632547D01*
X164895497Y-125663846D01*
X164978881Y-125690940D01*
X165165514Y-125720500D01*
X165165519Y-125720500D01*
X165354486Y-125720500D01*
X165541118Y-125690940D01*
X165720832Y-125632547D01*
X165889199Y-125546760D01*
X166042073Y-125435690D01*
X166175690Y-125302073D01*
X166286760Y-125149199D01*
X166372547Y-124980832D01*
X166430940Y-124801118D01*
X166441810Y-124732488D01*
X166460500Y-124614486D01*
X166460500Y-124447525D01*
X167209500Y-124447525D01*
X167209500Y-124592475D01*
X167236486Y-124693186D01*
X167247017Y-124732488D01*
X167319488Y-124858011D01*
X167319490Y-124858013D01*
X167319491Y-124858015D01*
X167421985Y-124960509D01*
X167421986Y-124960510D01*
X167421988Y-124960511D01*
X167547511Y-125032982D01*
X167547512Y-125032982D01*
X167547515Y-125032984D01*
X167687525Y-125070500D01*
X167687528Y-125070500D01*
X167832472Y-125070500D01*
X167832475Y-125070500D01*
X167972485Y-125032984D01*
X168098015Y-124960509D01*
X168200509Y-124858015D01*
X168272984Y-124732485D01*
X168310500Y-124592475D01*
X168310500Y-124447525D01*
X168272984Y-124307515D01*
X168272579Y-124306814D01*
X168200511Y-124181988D01*
X168200506Y-124181982D01*
X168098017Y-124079493D01*
X168098011Y-124079488D01*
X167972488Y-124007017D01*
X167972489Y-124007017D01*
X167944435Y-123999500D01*
X167832475Y-123969500D01*
X167687525Y-123969500D01*
X167575565Y-123999500D01*
X167547511Y-124007017D01*
X167421988Y-124079488D01*
X167421982Y-124079493D01*
X167319493Y-124181982D01*
X167319488Y-124181988D01*
X167247017Y-124307511D01*
X167247016Y-124307515D01*
X167209500Y-124447525D01*
X166460500Y-124447525D01*
X166460500Y-124425513D01*
X166430940Y-124238881D01*
X166392069Y-124119251D01*
X166372547Y-124059168D01*
X166372545Y-124059165D01*
X166372545Y-124059163D01*
X166326859Y-123969500D01*
X166286760Y-123890801D01*
X166175690Y-123737927D01*
X166042073Y-123604310D01*
X165889199Y-123493240D01*
X165774867Y-123434985D01*
X165724071Y-123387010D01*
X165707276Y-123319189D01*
X165729813Y-123253054D01*
X165784528Y-123209603D01*
X165831162Y-123200500D01*
X169688838Y-123200500D01*
X169755877Y-123220185D01*
X169801632Y-123272989D01*
X169811576Y-123342147D01*
X169782551Y-123405703D01*
X169745133Y-123434985D01*
X169630800Y-123493240D01*
X169601744Y-123514351D01*
X169477927Y-123604310D01*
X169477925Y-123604312D01*
X169477924Y-123604312D01*
X169344312Y-123737924D01*
X169344312Y-123737925D01*
X169344310Y-123737927D01*
X169296610Y-123803579D01*
X169233240Y-123890800D01*
X169147454Y-124059163D01*
X169089059Y-124238881D01*
X169059500Y-124425513D01*
X169059500Y-124614486D01*
X169089059Y-124801118D01*
X169147454Y-124980836D01*
X169233240Y-125149199D01*
X169344310Y-125302073D01*
X169477927Y-125435690D01*
X169630801Y-125546760D01*
X169666629Y-125565015D01*
X169799163Y-125632545D01*
X169799165Y-125632545D01*
X169799168Y-125632547D01*
X169895497Y-125663846D01*
X169978881Y-125690940D01*
X170165514Y-125720500D01*
X170165519Y-125720500D01*
X170354486Y-125720500D01*
X170541118Y-125690940D01*
X170720832Y-125632547D01*
X170889199Y-125546760D01*
X171042073Y-125435690D01*
X171175690Y-125302073D01*
X171286760Y-125149199D01*
X171372547Y-124980832D01*
X171392069Y-124920748D01*
X171431507Y-124863073D01*
X171495865Y-124835875D01*
X171564712Y-124847790D01*
X171616187Y-124895034D01*
X171627930Y-124920746D01*
X171642760Y-124966390D01*
X171647454Y-124980834D01*
X171693141Y-125070500D01*
X171733240Y-125149199D01*
X171844310Y-125302073D01*
X171977927Y-125435690D01*
X172130801Y-125546760D01*
X172166629Y-125565015D01*
X172299163Y-125632545D01*
X172299165Y-125632545D01*
X172299168Y-125632547D01*
X172395497Y-125663846D01*
X172478881Y-125690940D01*
X172665514Y-125720500D01*
X172665519Y-125720500D01*
X172854486Y-125720500D01*
X173041118Y-125690940D01*
X173220832Y-125632547D01*
X173389199Y-125546760D01*
X173542073Y-125435690D01*
X173675690Y-125302073D01*
X173786760Y-125149199D01*
X173872547Y-124980832D01*
X173930940Y-124801118D01*
X173941810Y-124732488D01*
X173960500Y-124614486D01*
X173960500Y-124425513D01*
X173930940Y-124238881D01*
X173892069Y-124119251D01*
X173872547Y-124059168D01*
X173872545Y-124059165D01*
X173872545Y-124059163D01*
X173826859Y-123969500D01*
X173786760Y-123890801D01*
X173675690Y-123737927D01*
X173542073Y-123604310D01*
X173389199Y-123493240D01*
X173349947Y-123473240D01*
X173220836Y-123407454D01*
X173041118Y-123349059D01*
X172854486Y-123319500D01*
X172854481Y-123319500D01*
X172665519Y-123319500D01*
X172665514Y-123319500D01*
X172478881Y-123349059D01*
X172299163Y-123407454D01*
X172130800Y-123493240D01*
X172101744Y-123514351D01*
X171977927Y-123604310D01*
X171977925Y-123604312D01*
X171977924Y-123604312D01*
X171844312Y-123737924D01*
X171844312Y-123737925D01*
X171844310Y-123737927D01*
X171796610Y-123803579D01*
X171733240Y-123890800D01*
X171647454Y-124059163D01*
X171640849Y-124079493D01*
X171628460Y-124117624D01*
X171627931Y-124119251D01*
X171588493Y-124176926D01*
X171524134Y-124204124D01*
X171455288Y-124192209D01*
X171403812Y-124144965D01*
X171392069Y-124119251D01*
X171372547Y-124059168D01*
X171372545Y-124059165D01*
X171372545Y-124059163D01*
X171326859Y-123969500D01*
X171286760Y-123890801D01*
X171175690Y-123737927D01*
X171042073Y-123604310D01*
X170889199Y-123493240D01*
X170774867Y-123434985D01*
X170720833Y-123407453D01*
X170716480Y-123406039D01*
X170658805Y-123366600D01*
X170631609Y-123302241D01*
X170643525Y-123233395D01*
X170656430Y-123212616D01*
X170660490Y-123207323D01*
X170660500Y-123207314D01*
X170726392Y-123093186D01*
X170760500Y-122965892D01*
X170760500Y-122834108D01*
X170726392Y-122706814D01*
X170660500Y-122592686D01*
X170567314Y-122499500D01*
X170509969Y-122466392D01*
X170453187Y-122433608D01*
X170389539Y-122416554D01*
X170325892Y-122399500D01*
X170194108Y-122399500D01*
X170066812Y-122433608D01*
X169952686Y-122499500D01*
X169952683Y-122499502D01*
X169889005Y-122563181D01*
X169827682Y-122596666D01*
X169801324Y-122599500D01*
X163167676Y-122599500D01*
X163100637Y-122579815D01*
X163054882Y-122527011D01*
X163044938Y-122457853D01*
X163073963Y-122394297D01*
X163079995Y-122387819D01*
X163160500Y-122307314D01*
X163226392Y-122193186D01*
X163260500Y-122065892D01*
X163260500Y-121934108D01*
X163226392Y-121806814D01*
X163160500Y-121692686D01*
X163067314Y-121599500D01*
X163010250Y-121566554D01*
X162953187Y-121533608D01*
X162898385Y-121518924D01*
X162825892Y-121499500D01*
X162694108Y-121499500D01*
X162566812Y-121533608D01*
X162452686Y-121599500D01*
X162452683Y-121599502D01*
X162389005Y-121663181D01*
X162327682Y-121696666D01*
X162301324Y-121699500D01*
X159718676Y-121699500D01*
X159651637Y-121679815D01*
X159630995Y-121663181D01*
X159567316Y-121599502D01*
X159567314Y-121599500D01*
X159510250Y-121566554D01*
X159453187Y-121533608D01*
X159389539Y-121516554D01*
X159325892Y-121499500D01*
X159194108Y-121499500D01*
X159066812Y-121533608D01*
X158952686Y-121599500D01*
X158952683Y-121599502D01*
X158859502Y-121692683D01*
X158859500Y-121692686D01*
X158793608Y-121806812D01*
X158759500Y-121934108D01*
X158759500Y-122065891D01*
X158793608Y-122193187D01*
X158826554Y-122250250D01*
X158859500Y-122307314D01*
X158859502Y-122307316D01*
X158940005Y-122387819D01*
X158973490Y-122449142D01*
X158968506Y-122518834D01*
X158926634Y-122574767D01*
X158861170Y-122599184D01*
X158852324Y-122599500D01*
X150718676Y-122599500D01*
X150651637Y-122579815D01*
X150630995Y-122563181D01*
X150567317Y-122499502D01*
X150567314Y-122499500D01*
X150453188Y-122433608D01*
X150325892Y-122399500D01*
X150194108Y-122399500D01*
X150130461Y-122416554D01*
X150066813Y-122433608D01*
X150010031Y-122466392D01*
X149952686Y-122499500D01*
X149952684Y-122499502D01*
X149889005Y-122563181D01*
X149827682Y-122596666D01*
X149801324Y-122599500D01*
X142818676Y-122599500D01*
X142751637Y-122579815D01*
X142730995Y-122563181D01*
X142667317Y-122499502D01*
X142667314Y-122499500D01*
X142553188Y-122433608D01*
X142425892Y-122399500D01*
X142294108Y-122399500D01*
X142230461Y-122416554D01*
X142166813Y-122433608D01*
X142110031Y-122466392D01*
X142052686Y-122499500D01*
X141959500Y-122592686D01*
X141893608Y-122706814D01*
X141859500Y-122834108D01*
X141859500Y-122965892D01*
X141893608Y-123093186D01*
X141959500Y-123207314D01*
X142052686Y-123300500D01*
X142063331Y-123306645D01*
X142111547Y-123357211D01*
X142124771Y-123425818D01*
X142098804Y-123490683D01*
X142074218Y-123514350D01*
X141977927Y-123584310D01*
X141844310Y-123717927D01*
X141733240Y-123870801D01*
X141647453Y-124039168D01*
X141647453Y-124039170D01*
X141647451Y-124039173D01*
X141646628Y-124041158D01*
X141646114Y-124041796D01*
X141645241Y-124043509D01*
X141644882Y-124043325D01*
X141602786Y-124095561D01*
X141536491Y-124117624D01*
X141470068Y-124101090D01*
X141353189Y-124033609D01*
X141353187Y-124033608D01*
X141353186Y-124033608D01*
X141225892Y-123999500D01*
X141094108Y-123999500D01*
X141066058Y-124007016D01*
X140966813Y-124033608D01*
X140921983Y-124059491D01*
X140852686Y-124099500D01*
X140759500Y-124192686D01*
X140693608Y-124306814D01*
X140659500Y-124434108D01*
X134260500Y-124434108D01*
X134260500Y-121388543D01*
X136059500Y-121388543D01*
X136059500Y-121611457D01*
X136088596Y-121832463D01*
X136146290Y-122047781D01*
X136231595Y-122253726D01*
X136343052Y-122446774D01*
X136478753Y-122623624D01*
X136636376Y-122781247D01*
X136813226Y-122916948D01*
X137006274Y-123028405D01*
X137212219Y-123113710D01*
X137427537Y-123171404D01*
X137648543Y-123200500D01*
X137648550Y-123200500D01*
X137871450Y-123200500D01*
X137871457Y-123200500D01*
X138092463Y-123171404D01*
X138307781Y-123113710D01*
X138357331Y-123093186D01*
X138383860Y-123082197D01*
X138513726Y-123028405D01*
X138706774Y-122916948D01*
X138883624Y-122781247D01*
X138883630Y-122781242D01*
X139041243Y-122623629D01*
X139041249Y-122623622D01*
X139176942Y-122446782D01*
X139176943Y-122446780D01*
X139176948Y-122446774D01*
X139288405Y-122253726D01*
X139313481Y-122193187D01*
X139373707Y-122047790D01*
X139373710Y-122047780D01*
X139431403Y-121832465D01*
X139431404Y-121832463D01*
X139431405Y-121832457D01*
X139431406Y-121832452D01*
X139460499Y-121611466D01*
X139460500Y-121611450D01*
X139460500Y-121388549D01*
X176059500Y-121388549D01*
X176059500Y-121611450D01*
X176059501Y-121611466D01*
X176088594Y-121832452D01*
X176088595Y-121832457D01*
X176088596Y-121832463D01*
X176088597Y-121832465D01*
X176146290Y-122047780D01*
X176146293Y-122047790D01*
X176206519Y-122193187D01*
X176231595Y-122253726D01*
X176343052Y-122446774D01*
X176343057Y-122446780D01*
X176343058Y-122446782D01*
X176478751Y-122623622D01*
X176478757Y-122623629D01*
X176636370Y-122781242D01*
X176636376Y-122781247D01*
X176813226Y-122916948D01*
X177006274Y-123028405D01*
X177136140Y-123082197D01*
X177162669Y-123093186D01*
X177212219Y-123113710D01*
X177427537Y-123171404D01*
X177648543Y-123200500D01*
X177648550Y-123200500D01*
X177871450Y-123200500D01*
X177871457Y-123200500D01*
X178092463Y-123171404D01*
X178307781Y-123113710D01*
X178513726Y-123028405D01*
X178706774Y-122916948D01*
X178883624Y-122781247D01*
X179041247Y-122623624D01*
X179176948Y-122446774D01*
X179288405Y-122253726D01*
X179373710Y-122047781D01*
X179431404Y-121832463D01*
X179460500Y-121611457D01*
X179460500Y-121388543D01*
X179431404Y-121167537D01*
X179373710Y-120952219D01*
X179288405Y-120746274D01*
X179176948Y-120553226D01*
X179041247Y-120376376D01*
X179041242Y-120376370D01*
X178883629Y-120218757D01*
X178883622Y-120218751D01*
X178706782Y-120083058D01*
X178706780Y-120083057D01*
X178706774Y-120083052D01*
X178513726Y-119971595D01*
X178513722Y-119971593D01*
X178307790Y-119886293D01*
X178307783Y-119886291D01*
X178307781Y-119886290D01*
X178092463Y-119828596D01*
X178092457Y-119828595D01*
X178092452Y-119828594D01*
X177871466Y-119799501D01*
X177871463Y-119799500D01*
X177871457Y-119799500D01*
X177648543Y-119799500D01*
X177648537Y-119799500D01*
X177648533Y-119799501D01*
X177427547Y-119828594D01*
X177427540Y-119828595D01*
X177427537Y-119828596D01*
X177212219Y-119886290D01*
X177212209Y-119886293D01*
X177006277Y-119971593D01*
X177006273Y-119971595D01*
X176813226Y-120083052D01*
X176813217Y-120083058D01*
X176636377Y-120218751D01*
X176636370Y-120218757D01*
X176478757Y-120376370D01*
X176478751Y-120376377D01*
X176343058Y-120553217D01*
X176343052Y-120553226D01*
X176231595Y-120746273D01*
X176231593Y-120746277D01*
X176146293Y-120952209D01*
X176146290Y-120952219D01*
X176088597Y-121167534D01*
X176088594Y-121167547D01*
X176059501Y-121388533D01*
X176059500Y-121388549D01*
X139460500Y-121388549D01*
X139460499Y-121388533D01*
X139431406Y-121167547D01*
X139431403Y-121167534D01*
X139373710Y-120952219D01*
X139373707Y-120952209D01*
X139288407Y-120746277D01*
X139288405Y-120746273D01*
X139176948Y-120553226D01*
X139176942Y-120553217D01*
X139041249Y-120376377D01*
X139041243Y-120376370D01*
X138883630Y-120218757D01*
X138883623Y-120218751D01*
X138706783Y-120083058D01*
X138706774Y-120083052D01*
X138513727Y-119971595D01*
X138513723Y-119971593D01*
X138307791Y-119886293D01*
X138307781Y-119886290D01*
X138092463Y-119828596D01*
X138092460Y-119828595D01*
X138092453Y-119828594D01*
X137871467Y-119799501D01*
X137871463Y-119799500D01*
X137871457Y-119799500D01*
X137648543Y-119799500D01*
X137648537Y-119799500D01*
X137648534Y-119799501D01*
X137427548Y-119828594D01*
X137427543Y-119828595D01*
X137427537Y-119828596D01*
X137212219Y-119886290D01*
X137212217Y-119886291D01*
X137212210Y-119886293D01*
X137006278Y-119971593D01*
X137006274Y-119971595D01*
X136813226Y-120083052D01*
X136813220Y-120083057D01*
X136813218Y-120083058D01*
X136636378Y-120218751D01*
X136636371Y-120218757D01*
X136478758Y-120376370D01*
X136478753Y-120376376D01*
X136343052Y-120553226D01*
X136231595Y-120746274D01*
X136146290Y-120952219D01*
X136088596Y-121167537D01*
X136059500Y-121388543D01*
X134260500Y-121388543D01*
X134260500Y-118823713D01*
X144979500Y-118823713D01*
X144979500Y-119036287D01*
X145012754Y-119246243D01*
X145078443Y-119448412D01*
X145174949Y-119637816D01*
X145174952Y-119637820D01*
X145299891Y-119809786D01*
X145299894Y-119809788D01*
X145299896Y-119809792D01*
X145450208Y-119960104D01*
X145450212Y-119960106D01*
X145450214Y-119960109D01*
X145600211Y-120069086D01*
X145622184Y-120085051D01*
X145811588Y-120181557D01*
X146013757Y-120247246D01*
X146223713Y-120280500D01*
X146223714Y-120280500D01*
X146436286Y-120280500D01*
X146436287Y-120280500D01*
X146646243Y-120247246D01*
X146848412Y-120181557D01*
X147037816Y-120085051D01*
X147037819Y-120085049D01*
X147037821Y-120085048D01*
X147209787Y-119960109D01*
X147360110Y-119809786D01*
X147485049Y-119637820D01*
X147581556Y-119448414D01*
X147647247Y-119246239D01*
X147680500Y-119036286D01*
X147680500Y-118823713D01*
X167839500Y-118823713D01*
X167839500Y-119036286D01*
X167872753Y-119246239D01*
X167938444Y-119448414D01*
X168034951Y-119637820D01*
X168159890Y-119809786D01*
X168310213Y-119960109D01*
X168482179Y-120085048D01*
X168482181Y-120085049D01*
X168482184Y-120085051D01*
X168671588Y-120181557D01*
X168873757Y-120247246D01*
X169083713Y-120280500D01*
X169083714Y-120280500D01*
X169296286Y-120280500D01*
X169296287Y-120280500D01*
X169506243Y-120247246D01*
X169708412Y-120181557D01*
X169897816Y-120085051D01*
X169919789Y-120069086D01*
X170069786Y-119960109D01*
X170069788Y-119960106D01*
X170069792Y-119960104D01*
X170220104Y-119809792D01*
X170220106Y-119809788D01*
X170220109Y-119809786D01*
X170345048Y-119637820D01*
X170345047Y-119637820D01*
X170345051Y-119637816D01*
X170441557Y-119448412D01*
X170507246Y-119246243D01*
X170540500Y-119036287D01*
X170540500Y-118823713D01*
X170507246Y-118613757D01*
X170441557Y-118411588D01*
X170345051Y-118222184D01*
X170345049Y-118222181D01*
X170345048Y-118222179D01*
X170220109Y-118050213D01*
X170069786Y-117899890D01*
X169897820Y-117774951D01*
X169708414Y-117678444D01*
X169708413Y-117678443D01*
X169708412Y-117678443D01*
X169506243Y-117612754D01*
X169506241Y-117612753D01*
X169506240Y-117612753D01*
X169344957Y-117587208D01*
X169296287Y-117579500D01*
X169083713Y-117579500D01*
X169035042Y-117587208D01*
X168873760Y-117612753D01*
X168671585Y-117678444D01*
X168482179Y-117774951D01*
X168310213Y-117899890D01*
X168159890Y-118050213D01*
X168034951Y-118222179D01*
X167938444Y-118411585D01*
X167872753Y-118613760D01*
X167839500Y-118823713D01*
X147680500Y-118823713D01*
X147647247Y-118613760D01*
X147581556Y-118411585D01*
X147485049Y-118222179D01*
X147360110Y-118050213D01*
X147209787Y-117899890D01*
X147037821Y-117774951D01*
X146848415Y-117678444D01*
X146646240Y-117612753D01*
X146646241Y-117612753D01*
X146475798Y-117585757D01*
X146436287Y-117579500D01*
X146223713Y-117579500D01*
X146160356Y-117589534D01*
X146013761Y-117612753D01*
X146013759Y-117612753D01*
X146013757Y-117612754D01*
X145811588Y-117678443D01*
X145811587Y-117678443D01*
X145811586Y-117678444D01*
X145622180Y-117774951D01*
X145450214Y-117899890D01*
X145299891Y-118050213D01*
X145174952Y-118222179D01*
X145174951Y-118222181D01*
X145174949Y-118222184D01*
X145078443Y-118411588D01*
X145012754Y-118613757D01*
X144979500Y-118823713D01*
X134260500Y-118823713D01*
X134260500Y-95963713D01*
X144979500Y-95963713D01*
X144979500Y-96176287D01*
X145012754Y-96386243D01*
X145078443Y-96588412D01*
X145174949Y-96777816D01*
X145174952Y-96777820D01*
X145299891Y-96949786D01*
X145299894Y-96949788D01*
X145299896Y-96949792D01*
X145450208Y-97100104D01*
X145450212Y-97100106D01*
X145450214Y-97100109D01*
X145600211Y-97209086D01*
X145622184Y-97225051D01*
X145811588Y-97321557D01*
X146013757Y-97387246D01*
X146223713Y-97420500D01*
X146223714Y-97420500D01*
X146436286Y-97420500D01*
X146436287Y-97420500D01*
X146646243Y-97387246D01*
X146848412Y-97321557D01*
X147037816Y-97225051D01*
X147037819Y-97225049D01*
X147037821Y-97225048D01*
X147209787Y-97100109D01*
X147360110Y-96949786D01*
X147485049Y-96777820D01*
X147581556Y-96588414D01*
X147647247Y-96386240D01*
X147680500Y-96176287D01*
X147680500Y-95963714D01*
X167839500Y-95963714D01*
X167839500Y-96176287D01*
X167872753Y-96386240D01*
X167938444Y-96588414D01*
X168034951Y-96777820D01*
X168159890Y-96949786D01*
X168310213Y-97100109D01*
X168482179Y-97225048D01*
X168482181Y-97225049D01*
X168482184Y-97225051D01*
X168671588Y-97321557D01*
X168873757Y-97387246D01*
X169083713Y-97420500D01*
X169083714Y-97420500D01*
X169296286Y-97420500D01*
X169296287Y-97420500D01*
X169506243Y-97387246D01*
X169708412Y-97321557D01*
X169897816Y-97225051D01*
X169919789Y-97209086D01*
X170069786Y-97100109D01*
X170069788Y-97100106D01*
X170069792Y-97100104D01*
X170220104Y-96949792D01*
X170220106Y-96949788D01*
X170220109Y-96949786D01*
X170345048Y-96777820D01*
X170345047Y-96777820D01*
X170345051Y-96777816D01*
X170441557Y-96588412D01*
X170507246Y-96386243D01*
X170540500Y-96176287D01*
X170540500Y-95963713D01*
X170507246Y-95753757D01*
X170441557Y-95551588D01*
X170345051Y-95362184D01*
X170329086Y-95340211D01*
X170220109Y-95190214D01*
X170220106Y-95190212D01*
X170220104Y-95190208D01*
X170069792Y-95039896D01*
X170069788Y-95039894D01*
X170069786Y-95039891D01*
X169897820Y-94914952D01*
X169897816Y-94914949D01*
X169708412Y-94818443D01*
X169506243Y-94752754D01*
X169296287Y-94719500D01*
X169083713Y-94719500D01*
X168873757Y-94752754D01*
X168671588Y-94818443D01*
X168482184Y-94914949D01*
X168482181Y-94914951D01*
X168482179Y-94914952D01*
X168310213Y-95039891D01*
X168159890Y-95190214D01*
X168034951Y-95362180D01*
X167938444Y-95551586D01*
X167872753Y-95753761D01*
X167839500Y-95963714D01*
X147680500Y-95963714D01*
X147647247Y-95753761D01*
X147581556Y-95551586D01*
X147485049Y-95362180D01*
X147360110Y-95190214D01*
X147209787Y-95039891D01*
X147037821Y-94914952D01*
X147037819Y-94914951D01*
X147037816Y-94914949D01*
X146848412Y-94818443D01*
X146646243Y-94752754D01*
X146436287Y-94719500D01*
X146223713Y-94719500D01*
X146013757Y-94752754D01*
X145811588Y-94818443D01*
X145622184Y-94914949D01*
X145622180Y-94914952D01*
X145450214Y-95039891D01*
X145450212Y-95039894D01*
X145450208Y-95039896D01*
X145299896Y-95190208D01*
X145299894Y-95190212D01*
X145299891Y-95190214D01*
X145190914Y-95340211D01*
X145174949Y-95362184D01*
X145078443Y-95551588D01*
X145012754Y-95753757D01*
X144979500Y-95963713D01*
X134260500Y-95963713D01*
X134260500Y-92902173D01*
X152550000Y-92902173D01*
X152550000Y-93600000D01*
X153516988Y-93600000D01*
X153484075Y-93657007D01*
X153450000Y-93784174D01*
X153450000Y-93915826D01*
X153484075Y-94042993D01*
X153516988Y-94100000D01*
X152550000Y-94100000D01*
X152550000Y-94797828D01*
X152550001Y-94797845D01*
X152556402Y-94857373D01*
X152556404Y-94857380D01*
X152606646Y-94992087D01*
X152606650Y-94992094D01*
X152692810Y-95107188D01*
X152692813Y-95107191D01*
X152807907Y-95193351D01*
X152807914Y-95193355D01*
X152942621Y-95243597D01*
X152942628Y-95243599D01*
X153002156Y-95250000D01*
X153700000Y-95250000D01*
X153700000Y-94283012D01*
X153757007Y-94315925D01*
X153884174Y-94350000D01*
X154015826Y-94350000D01*
X154142993Y-94315925D01*
X154200000Y-94283012D01*
X154200000Y-95250000D01*
X154897845Y-95250000D01*
X154957373Y-95243599D01*
X154957380Y-95243597D01*
X155092087Y-95193355D01*
X155092094Y-95193351D01*
X155207188Y-95107191D01*
X155207191Y-95107188D01*
X155293351Y-94992094D01*
X155293355Y-94992087D01*
X155343597Y-94857380D01*
X155343599Y-94857373D01*
X155350000Y-94797845D01*
X155350000Y-94534841D01*
X155369685Y-94467802D01*
X155422489Y-94422047D01*
X155491647Y-94412103D01*
X155555203Y-94441128D01*
X155574318Y-94461955D01*
X155606719Y-94506550D01*
X155650586Y-94566928D01*
X155773072Y-94689414D01*
X155913212Y-94791232D01*
X156067555Y-94869873D01*
X156232299Y-94923402D01*
X156232301Y-94923403D01*
X156232302Y-94923403D01*
X156363729Y-94944219D01*
X156403389Y-94950500D01*
X156403390Y-94950500D01*
X156576610Y-94950500D01*
X156576611Y-94950500D01*
X156616272Y-94944219D01*
X156747698Y-94923403D01*
X156912448Y-94869872D01*
X157066789Y-94791232D01*
X157165518Y-94719500D01*
X157206928Y-94689414D01*
X157206930Y-94689412D01*
X157206931Y-94689412D01*
X157329412Y-94566931D01*
X157329412Y-94566930D01*
X157329414Y-94566928D01*
X157373141Y-94506744D01*
X157431232Y-94426789D01*
X157509872Y-94272448D01*
X157563403Y-94107698D01*
X157590500Y-93936611D01*
X157590500Y-93763390D01*
X157563403Y-93592303D01*
X157547381Y-93542993D01*
X157509873Y-93427555D01*
X157431232Y-93273212D01*
X157329414Y-93133072D01*
X157206928Y-93010586D01*
X157066788Y-92908768D01*
X156912445Y-92830127D01*
X156747701Y-92776598D01*
X156576611Y-92749500D01*
X156403389Y-92749500D01*
X156232299Y-92776598D01*
X156067555Y-92830127D01*
X155913212Y-92908768D01*
X155773072Y-93010586D01*
X155650586Y-93133072D01*
X155574318Y-93238046D01*
X155518988Y-93280711D01*
X155449374Y-93286690D01*
X155387579Y-93254084D01*
X155353222Y-93193245D01*
X155350000Y-93165160D01*
X155350000Y-92902156D01*
X155343599Y-92842628D01*
X155343597Y-92842621D01*
X155293355Y-92707914D01*
X155293351Y-92707907D01*
X155207191Y-92592813D01*
X155207188Y-92592810D01*
X155092094Y-92506650D01*
X155092087Y-92506646D01*
X154957380Y-92456404D01*
X154957373Y-92456402D01*
X154914474Y-92451789D01*
X154849923Y-92425051D01*
X154810075Y-92367658D01*
X154807582Y-92297833D01*
X154843235Y-92237744D01*
X154905715Y-92206470D01*
X154927730Y-92204500D01*
X155283753Y-92204500D01*
X155342230Y-92192869D01*
X155342231Y-92192868D01*
X155408553Y-92148553D01*
X155452868Y-92082231D01*
X155452869Y-92082230D01*
X155464500Y-92023753D01*
X155464500Y-91724500D01*
X155484185Y-91657461D01*
X155536989Y-91611706D01*
X155588500Y-91600500D01*
X160039184Y-91600500D01*
X160106223Y-91620185D01*
X160151978Y-91672989D01*
X160153745Y-91677047D01*
X160164131Y-91702122D01*
X160164136Y-91702132D01*
X160268591Y-91858458D01*
X160268594Y-91858462D01*
X160297953Y-91887820D01*
X160331438Y-91949143D01*
X160326454Y-92018835D01*
X160284582Y-92074768D01*
X160219118Y-92099185D01*
X160210272Y-92099501D01*
X159518676Y-92099501D01*
X159451637Y-92079816D01*
X159430995Y-92063182D01*
X159367314Y-91999501D01*
X159253186Y-91933609D01*
X159125892Y-91899501D01*
X158994108Y-91899501D01*
X158866814Y-91933609D01*
X158752686Y-91999501D01*
X158659500Y-92092687D01*
X158655566Y-92099501D01*
X158593608Y-92206814D01*
X158559500Y-92334110D01*
X158559500Y-92465893D01*
X158593608Y-92593189D01*
X158637146Y-92668596D01*
X158653619Y-92736496D01*
X158630767Y-92802523D01*
X158586054Y-92841082D01*
X158453212Y-92908768D01*
X158313072Y-93010586D01*
X158190586Y-93133072D01*
X158088768Y-93273212D01*
X158010127Y-93427555D01*
X157972619Y-93542993D01*
X157956597Y-93592303D01*
X157929500Y-93763390D01*
X157929500Y-93936611D01*
X157956597Y-94107698D01*
X158010128Y-94272448D01*
X158088768Y-94426789D01*
X158146859Y-94506744D01*
X158190586Y-94566928D01*
X158190588Y-94566930D01*
X158190588Y-94566931D01*
X158313069Y-94689412D01*
X158453211Y-94791232D01*
X158607552Y-94869872D01*
X158772302Y-94923403D01*
X158772301Y-94923403D01*
X158911192Y-94945401D01*
X158943389Y-94950500D01*
X158943390Y-94950500D01*
X159116610Y-94950500D01*
X159116611Y-94950500D01*
X159168239Y-94942323D01*
X159287697Y-94923403D01*
X159287699Y-94923403D01*
X159287701Y-94923402D01*
X159452445Y-94869873D01*
X159606788Y-94791232D01*
X159746928Y-94689414D01*
X159869414Y-94566928D01*
X159971232Y-94426788D01*
X160049873Y-94272445D01*
X160103402Y-94107701D01*
X160130500Y-93936611D01*
X160130500Y-93763389D01*
X160103402Y-93592299D01*
X160049873Y-93427555D01*
X159971232Y-93273212D01*
X159869414Y-93133072D01*
X159746928Y-93010586D01*
X159628879Y-92924819D01*
X159586215Y-92869489D01*
X159580236Y-92799875D01*
X159612842Y-92738080D01*
X159673681Y-92703723D01*
X159701766Y-92700501D01*
X160898234Y-92700501D01*
X160965273Y-92720186D01*
X161011028Y-92772990D01*
X161020972Y-92842148D01*
X160991947Y-92905704D01*
X160971120Y-92924819D01*
X160853072Y-93010586D01*
X160730586Y-93133072D01*
X160628768Y-93273212D01*
X160550127Y-93427555D01*
X160512619Y-93542993D01*
X160496597Y-93592303D01*
X160469500Y-93763390D01*
X160469500Y-93936611D01*
X160496597Y-94107698D01*
X160550128Y-94272448D01*
X160628768Y-94426789D01*
X160686859Y-94506744D01*
X160730586Y-94566928D01*
X160730588Y-94566930D01*
X160730588Y-94566931D01*
X160853069Y-94689412D01*
X160993211Y-94791232D01*
X161147552Y-94869872D01*
X161312302Y-94923403D01*
X161312301Y-94923403D01*
X161451192Y-94945401D01*
X161483389Y-94950500D01*
X161483390Y-94950500D01*
X161656610Y-94950500D01*
X161656611Y-94950500D01*
X161708239Y-94942323D01*
X161827697Y-94923403D01*
X161827699Y-94923403D01*
X161827701Y-94923402D01*
X161992445Y-94869873D01*
X162146788Y-94791232D01*
X162286928Y-94689414D01*
X162409414Y-94566928D01*
X162500813Y-94441128D01*
X162511233Y-94426787D01*
X162557876Y-94335244D01*
X162605850Y-94284447D01*
X162673671Y-94267652D01*
X162739806Y-94290189D01*
X162746216Y-94295584D01*
X162746240Y-94295553D01*
X162752686Y-94300500D01*
X162866812Y-94366392D01*
X162994108Y-94400500D01*
X163125891Y-94400500D01*
X163125892Y-94400500D01*
X163189539Y-94383446D01*
X163253187Y-94366392D01*
X163340597Y-94315925D01*
X163367314Y-94300500D01*
X163460500Y-94207314D01*
X163526392Y-94093186D01*
X163560500Y-93965892D01*
X163560500Y-93834108D01*
X163526392Y-93706814D01*
X163460500Y-93592686D01*
X163367314Y-93499500D01*
X163253186Y-93433608D01*
X163125892Y-93399500D01*
X162994108Y-93399500D01*
X162866814Y-93433608D01*
X162767793Y-93490778D01*
X162699896Y-93507250D01*
X162633869Y-93484398D01*
X162591227Y-93430826D01*
X162589876Y-93427566D01*
X162589873Y-93427555D01*
X162511232Y-93273212D01*
X162409414Y-93133072D01*
X162381339Y-93104998D01*
X162347856Y-93043679D01*
X162352840Y-92973987D01*
X162394710Y-92918053D01*
X162436928Y-92897544D01*
X162445620Y-92895215D01*
X162553186Y-92866393D01*
X162667314Y-92800501D01*
X162760500Y-92707315D01*
X162826392Y-92593187D01*
X162860500Y-92465893D01*
X162860500Y-92334109D01*
X162826392Y-92206815D01*
X162760500Y-92092687D01*
X162667314Y-91999501D01*
X162553186Y-91933609D01*
X162425892Y-91899501D01*
X162294108Y-91899501D01*
X162166814Y-91933609D01*
X162052686Y-91999501D01*
X162052683Y-91999504D01*
X161989005Y-92063182D01*
X161962077Y-92077886D01*
X161936259Y-92094478D01*
X161930058Y-92095370D01*
X161927682Y-92096667D01*
X161901324Y-92099501D01*
X161809728Y-92099501D01*
X161742689Y-92079816D01*
X161696934Y-92027012D01*
X161686990Y-91957854D01*
X161716015Y-91894298D01*
X161722047Y-91887820D01*
X161751405Y-91858462D01*
X161751408Y-91858458D01*
X161855863Y-91702132D01*
X161855870Y-91702119D01*
X161927817Y-91528422D01*
X161927819Y-91528417D01*
X161964499Y-91344015D01*
X161964500Y-91344013D01*
X161964500Y-91155988D01*
X161964499Y-91155986D01*
X161928967Y-90977356D01*
X161927819Y-90971583D01*
X161855867Y-90797875D01*
X161751408Y-90641542D01*
X161618458Y-90508592D01*
X161462125Y-90404133D01*
X161288417Y-90332181D01*
X161196632Y-90313924D01*
X161104013Y-90295500D01*
X161104010Y-90295500D01*
X160915990Y-90295500D01*
X160915987Y-90295500D01*
X160804741Y-90317629D01*
X160731583Y-90332181D01*
X160731578Y-90332183D01*
X160557881Y-90404130D01*
X160557868Y-90404137D01*
X160401542Y-90508592D01*
X160401538Y-90508595D01*
X160268594Y-90641539D01*
X160268591Y-90641543D01*
X160164136Y-90797869D01*
X160164131Y-90797878D01*
X160112324Y-90922953D01*
X160068483Y-90977356D01*
X160002189Y-90999421D01*
X159997763Y-90999500D01*
X155588500Y-90999500D01*
X155521461Y-90979815D01*
X155475706Y-90927011D01*
X155464500Y-90875500D01*
X155464500Y-90476248D01*
X155452869Y-90417771D01*
X155452868Y-90417770D01*
X155408553Y-90351448D01*
X155342231Y-90307133D01*
X155342230Y-90307132D01*
X155283753Y-90295501D01*
X155283751Y-90295500D01*
X155283748Y-90295500D01*
X153736252Y-90295500D01*
X153736249Y-90295500D01*
X153736249Y-90295501D01*
X153721432Y-90298448D01*
X153677771Y-90307132D01*
X153677771Y-90307133D01*
X153677769Y-90307133D01*
X153611448Y-90351448D01*
X153567133Y-90417769D01*
X153567133Y-90417770D01*
X153567132Y-90417771D01*
X153555501Y-90476248D01*
X153555500Y-90476250D01*
X153555500Y-92023751D01*
X153555501Y-92023753D01*
X153567132Y-92082230D01*
X153567133Y-92082231D01*
X153611448Y-92148553D01*
X153677770Y-92192868D01*
X153677771Y-92192869D01*
X153735660Y-92204383D01*
X153797571Y-92236768D01*
X153832145Y-92297483D01*
X153828406Y-92367253D01*
X153787539Y-92423925D01*
X153722521Y-92449506D01*
X153711469Y-92450000D01*
X153002172Y-92450000D01*
X153002156Y-92450001D01*
X152942628Y-92456402D01*
X152942621Y-92456404D01*
X152807914Y-92506646D01*
X152807907Y-92506650D01*
X152692813Y-92592810D01*
X152692810Y-92592813D01*
X152606650Y-92707907D01*
X152606646Y-92707914D01*
X152556404Y-92842621D01*
X152556402Y-92842628D01*
X152550001Y-92902156D01*
X152550000Y-92902173D01*
X134260500Y-92902173D01*
X134260500Y-89234108D01*
X150259500Y-89234108D01*
X150259500Y-89365892D01*
X150293608Y-89493186D01*
X150359500Y-89607314D01*
X150452686Y-89700500D01*
X150509750Y-89733446D01*
X150566813Y-89766392D01*
X150630461Y-89783446D01*
X150694108Y-89800500D01*
X150694109Y-89800500D01*
X150825892Y-89800500D01*
X150953188Y-89766392D01*
X151067314Y-89700500D01*
X151067317Y-89700498D01*
X151130995Y-89636819D01*
X151192318Y-89603334D01*
X151218676Y-89600500D01*
X154101324Y-89600500D01*
X154168363Y-89620185D01*
X154189005Y-89636819D01*
X154252686Y-89700500D01*
X154309750Y-89733446D01*
X154366813Y-89766392D01*
X154430461Y-89783446D01*
X154494108Y-89800500D01*
X154494109Y-89800500D01*
X154625892Y-89800500D01*
X154753188Y-89766392D01*
X154867314Y-89700500D01*
X154867317Y-89700498D01*
X154960498Y-89607317D01*
X154960500Y-89607314D01*
X155026392Y-89493188D01*
X155060500Y-89365892D01*
X155060500Y-89234109D01*
X160459500Y-89234109D01*
X160459500Y-89365892D01*
X160493608Y-89493188D01*
X160559500Y-89607314D01*
X160559502Y-89607317D01*
X160652683Y-89700498D01*
X160652686Y-89700500D01*
X160766812Y-89766392D01*
X160894108Y-89800500D01*
X161025891Y-89800500D01*
X161025892Y-89800500D01*
X161089539Y-89783446D01*
X161153187Y-89766392D01*
X161210250Y-89733446D01*
X161267314Y-89700500D01*
X161330995Y-89636819D01*
X161392318Y-89603334D01*
X161418676Y-89600500D01*
X164301324Y-89600500D01*
X164368363Y-89620185D01*
X164389005Y-89636819D01*
X164452683Y-89700498D01*
X164452686Y-89700500D01*
X164566812Y-89766392D01*
X164694108Y-89800500D01*
X164825891Y-89800500D01*
X164825892Y-89800500D01*
X164889539Y-89783446D01*
X164953187Y-89766392D01*
X165010250Y-89733446D01*
X165067314Y-89700500D01*
X165160500Y-89607314D01*
X165226392Y-89493186D01*
X165260500Y-89365892D01*
X165260500Y-89234108D01*
X165226392Y-89106814D01*
X165160500Y-88992686D01*
X165067314Y-88899500D01*
X164953186Y-88833608D01*
X164825892Y-88799500D01*
X164694108Y-88799500D01*
X164566814Y-88833608D01*
X164452686Y-88899500D01*
X164452683Y-88899503D01*
X164389005Y-88963181D01*
X164327682Y-88996666D01*
X164301324Y-88999500D01*
X161418676Y-88999500D01*
X161351637Y-88979815D01*
X161330995Y-88963181D01*
X161267314Y-88899500D01*
X161153186Y-88833608D01*
X161025892Y-88799500D01*
X160894108Y-88799500D01*
X160766814Y-88833608D01*
X160652686Y-88899500D01*
X160559500Y-88992686D01*
X160555566Y-88999500D01*
X160493608Y-89106813D01*
X160459500Y-89234109D01*
X155060500Y-89234109D01*
X155026392Y-89106813D01*
X154964434Y-88999500D01*
X154960500Y-88992686D01*
X154867314Y-88899500D01*
X154753186Y-88833608D01*
X154625892Y-88799500D01*
X154494108Y-88799500D01*
X154366814Y-88833608D01*
X154252686Y-88899500D01*
X154189005Y-88963181D01*
X154127682Y-88996666D01*
X154101324Y-88999500D01*
X151218676Y-88999500D01*
X151151637Y-88979815D01*
X151130995Y-88963181D01*
X151067317Y-88899503D01*
X151067314Y-88899500D01*
X150953186Y-88833608D01*
X150825892Y-88799500D01*
X150694108Y-88799500D01*
X150566814Y-88833608D01*
X150452686Y-88899500D01*
X150359500Y-88992686D01*
X150293608Y-89106814D01*
X150259500Y-89234108D01*
X134260500Y-89234108D01*
X134260500Y-86134108D01*
X140659500Y-86134108D01*
X140659500Y-86265892D01*
X140693608Y-86393186D01*
X140759500Y-86507314D01*
X140852686Y-86600500D01*
X140909750Y-86633446D01*
X140966813Y-86666392D01*
X141030461Y-86683446D01*
X141094108Y-86700500D01*
X141094109Y-86700500D01*
X141225892Y-86700500D01*
X141353188Y-86666392D01*
X141467314Y-86600500D01*
X141467317Y-86600498D01*
X141530995Y-86536819D01*
X141592318Y-86503334D01*
X141618676Y-86500500D01*
X144801324Y-86500500D01*
X144868363Y-86520185D01*
X144889005Y-86536819D01*
X144952686Y-86600500D01*
X145009750Y-86633446D01*
X145066813Y-86666392D01*
X145130461Y-86683446D01*
X145194108Y-86700500D01*
X145194109Y-86700500D01*
X145325892Y-86700500D01*
X145453188Y-86666392D01*
X145567314Y-86600500D01*
X145567317Y-86600498D01*
X145660498Y-86507317D01*
X145660500Y-86507314D01*
X145726392Y-86393188D01*
X145742222Y-86334108D01*
X150259500Y-86334108D01*
X150259500Y-86465892D01*
X150293608Y-86593186D01*
X150359500Y-86707314D01*
X150452686Y-86800500D01*
X150509750Y-86833446D01*
X150566813Y-86866392D01*
X150630461Y-86883446D01*
X150694108Y-86900500D01*
X150694109Y-86900500D01*
X150825892Y-86900500D01*
X150953188Y-86866392D01*
X151067314Y-86800500D01*
X151067317Y-86800498D01*
X151130995Y-86736819D01*
X151192318Y-86703334D01*
X151218676Y-86700500D01*
X151601324Y-86700500D01*
X151668363Y-86720185D01*
X151689005Y-86736819D01*
X151752686Y-86800500D01*
X151809750Y-86833446D01*
X151866813Y-86866392D01*
X151930461Y-86883446D01*
X151994108Y-86900500D01*
X151994109Y-86900500D01*
X152125892Y-86900500D01*
X152253188Y-86866392D01*
X152367314Y-86800500D01*
X152367317Y-86800498D01*
X152460498Y-86707317D01*
X152460500Y-86707314D01*
X152492838Y-86651303D01*
X153256000Y-86651303D01*
X153256000Y-86848698D01*
X153286877Y-87043647D01*
X153347874Y-87231374D01*
X153437480Y-87407232D01*
X153437488Y-87407245D01*
X153463458Y-87442990D01*
X153463459Y-87442991D01*
X154027038Y-86879411D01*
X154044075Y-86942993D01*
X154109901Y-87057007D01*
X154202993Y-87150099D01*
X154317007Y-87215925D01*
X154380591Y-87232963D01*
X153817011Y-87796543D01*
X153852761Y-87822517D01*
X154028627Y-87912127D01*
X154216354Y-87973124D01*
X154411303Y-88004000D01*
X154608697Y-88004000D01*
X154803647Y-87973124D01*
X154991374Y-87912127D01*
X155167238Y-87822518D01*
X155167240Y-87822517D01*
X155202990Y-87796544D01*
X155202990Y-87796543D01*
X154639409Y-87232963D01*
X154702993Y-87215925D01*
X154817007Y-87150099D01*
X154910099Y-87057007D01*
X154975925Y-86942993D01*
X154992963Y-86879410D01*
X155556543Y-87442990D01*
X155556544Y-87442990D01*
X155582517Y-87407240D01*
X155582518Y-87407238D01*
X155672127Y-87231374D01*
X155733124Y-87043647D01*
X155764000Y-86848698D01*
X155764000Y-86651303D01*
X159756000Y-86651303D01*
X159756000Y-86848698D01*
X159786876Y-87043647D01*
X159847873Y-87231374D01*
X159937482Y-87407238D01*
X159937483Y-87407240D01*
X159963456Y-87442990D01*
X159963457Y-87442990D01*
X160527037Y-86879410D01*
X160544075Y-86942993D01*
X160609901Y-87057007D01*
X160702993Y-87150099D01*
X160817007Y-87215925D01*
X160880591Y-87232963D01*
X160317010Y-87796543D01*
X160317010Y-87796544D01*
X160352760Y-87822517D01*
X160352762Y-87822518D01*
X160528626Y-87912127D01*
X160716353Y-87973124D01*
X160911303Y-88004000D01*
X161108697Y-88004000D01*
X161303646Y-87973124D01*
X161491373Y-87912127D01*
X161667239Y-87822517D01*
X161702988Y-87796543D01*
X161702989Y-87796543D01*
X161139409Y-87232963D01*
X161202993Y-87215925D01*
X161317007Y-87150099D01*
X161410099Y-87057007D01*
X161475925Y-86942993D01*
X161492962Y-86879411D01*
X162056541Y-87442991D01*
X162056542Y-87442990D01*
X162082512Y-87407245D01*
X162082520Y-87407232D01*
X162172126Y-87231374D01*
X162233123Y-87043647D01*
X162264000Y-86848698D01*
X162264000Y-86651303D01*
X162233123Y-86456354D01*
X162172126Y-86268627D01*
X162082516Y-86092759D01*
X162056543Y-86057012D01*
X162056541Y-86057012D01*
X161492962Y-86620591D01*
X161475925Y-86557007D01*
X161410099Y-86442993D01*
X161317007Y-86349901D01*
X161202993Y-86284075D01*
X161139410Y-86267038D01*
X161702988Y-85703459D01*
X161702988Y-85703457D01*
X161667241Y-85677484D01*
X161491373Y-85587874D01*
X161303646Y-85526877D01*
X161108697Y-85496000D01*
X160911303Y-85496000D01*
X160716353Y-85526877D01*
X160528626Y-85587874D01*
X160352768Y-85677480D01*
X160352755Y-85677488D01*
X160317010Y-85703458D01*
X160317009Y-85703459D01*
X160880590Y-86267038D01*
X160817007Y-86284075D01*
X160702993Y-86349901D01*
X160609901Y-86442993D01*
X160544075Y-86557007D01*
X160527037Y-86620591D01*
X159963457Y-86057011D01*
X159963457Y-86057012D01*
X159937483Y-86092761D01*
X159847873Y-86268627D01*
X159786876Y-86456354D01*
X159756000Y-86651303D01*
X155764000Y-86651303D01*
X155733124Y-86456354D01*
X155672127Y-86268627D01*
X155582517Y-86092761D01*
X155556543Y-86057012D01*
X155556543Y-86057011D01*
X154992963Y-86620591D01*
X154975925Y-86557007D01*
X154910099Y-86442993D01*
X154817007Y-86349901D01*
X154702993Y-86284075D01*
X154639410Y-86267038D01*
X155202991Y-85703459D01*
X155202990Y-85703458D01*
X155167245Y-85677488D01*
X155167232Y-85677480D01*
X154991374Y-85587874D01*
X154803647Y-85526877D01*
X154608697Y-85496000D01*
X154411303Y-85496000D01*
X154216354Y-85526877D01*
X154028627Y-85587874D01*
X153852759Y-85677484D01*
X153817012Y-85703457D01*
X153817012Y-85703459D01*
X154380590Y-86267038D01*
X154317007Y-86284075D01*
X154202993Y-86349901D01*
X154109901Y-86442993D01*
X154044075Y-86557007D01*
X154027038Y-86620591D01*
X153463459Y-86057012D01*
X153463457Y-86057012D01*
X153437484Y-86092759D01*
X153347874Y-86268627D01*
X153286877Y-86456354D01*
X153256000Y-86651303D01*
X152492838Y-86651303D01*
X152526391Y-86593189D01*
X152526392Y-86593186D01*
X152560500Y-86465892D01*
X152560500Y-86334109D01*
X152526392Y-86206813D01*
X152484416Y-86134110D01*
X152460500Y-86092686D01*
X152367314Y-85999500D01*
X152253186Y-85933608D01*
X152125892Y-85899500D01*
X151994108Y-85899500D01*
X151866814Y-85933608D01*
X151752686Y-85999500D01*
X151695175Y-86057011D01*
X151689005Y-86063181D01*
X151627682Y-86096666D01*
X151601324Y-86099500D01*
X151218676Y-86099500D01*
X151151637Y-86079815D01*
X151130995Y-86063181D01*
X151067317Y-85999503D01*
X151067314Y-85999500D01*
X150953186Y-85933608D01*
X150825892Y-85899500D01*
X150694108Y-85899500D01*
X150566814Y-85933608D01*
X150452686Y-85999500D01*
X150359500Y-86092686D01*
X150293608Y-86206814D01*
X150259500Y-86334108D01*
X145742222Y-86334108D01*
X145760500Y-86265892D01*
X145760500Y-86134108D01*
X145726392Y-86006814D01*
X145726392Y-86006813D01*
X145684126Y-85933608D01*
X145660500Y-85892686D01*
X145567314Y-85799500D01*
X145453186Y-85733608D01*
X145325892Y-85699500D01*
X145194108Y-85699500D01*
X145066814Y-85733608D01*
X144952686Y-85799500D01*
X144889005Y-85863181D01*
X144827682Y-85896666D01*
X144801324Y-85899500D01*
X141618676Y-85899500D01*
X141551637Y-85879815D01*
X141530995Y-85863181D01*
X141467317Y-85799503D01*
X141467314Y-85799500D01*
X141353186Y-85733608D01*
X141225892Y-85699500D01*
X141094108Y-85699500D01*
X140966814Y-85733608D01*
X140852686Y-85799500D01*
X140759500Y-85892686D01*
X140693608Y-86006814D01*
X140659500Y-86134108D01*
X134260500Y-86134108D01*
X134260500Y-85070000D01*
X153950000Y-85070000D01*
X161570000Y-85070000D01*
X161570000Y-80701507D01*
X163779500Y-80701507D01*
X163779500Y-81818494D01*
X163795279Y-81918122D01*
X163795280Y-81918126D01*
X163795281Y-81918126D01*
X163803170Y-81933609D01*
X163856473Y-82038222D01*
X163856476Y-82038226D01*
X163951774Y-82133524D01*
X163951778Y-82133527D01*
X164071878Y-82194721D01*
X164171507Y-82210500D01*
X164171512Y-82210500D01*
X166588493Y-82210500D01*
X166688121Y-82194721D01*
X166688124Y-82194720D01*
X166688126Y-82194719D01*
X166808220Y-82133528D01*
X166808221Y-82133527D01*
X166808225Y-82133524D01*
X166903523Y-82038226D01*
X166903526Y-82038222D01*
X166903528Y-82038220D01*
X166964719Y-81918126D01*
X166967669Y-81899501D01*
X166980500Y-81818494D01*
X166980500Y-80701507D01*
X166964720Y-80601879D01*
X166964719Y-80601879D01*
X166964719Y-80601874D01*
X166903528Y-80481780D01*
X166808220Y-80386472D01*
X166688126Y-80325281D01*
X166688121Y-80325281D01*
X166688121Y-80325280D01*
X166588493Y-80309500D01*
X166588488Y-80309500D01*
X164171512Y-80309500D01*
X164171507Y-80309500D01*
X164071878Y-80325280D01*
X164071876Y-80325281D01*
X164071874Y-80325281D01*
X163951780Y-80386472D01*
X163951778Y-80386474D01*
X163951774Y-80386477D01*
X163856476Y-80481775D01*
X163856473Y-80481779D01*
X163856472Y-80481780D01*
X163795281Y-80601874D01*
X163795280Y-80601876D01*
X163795279Y-80601879D01*
X163779500Y-80701507D01*
X161570000Y-80701507D01*
X161570000Y-79990000D01*
X153950000Y-79990000D01*
X153950000Y-85070000D01*
X134260500Y-85070000D01*
X134260500Y-83734108D01*
X141859500Y-83734108D01*
X141859500Y-83865892D01*
X141893608Y-83993186D01*
X141959500Y-84107314D01*
X142052686Y-84200500D01*
X142109750Y-84233446D01*
X142166813Y-84266392D01*
X142230461Y-84283446D01*
X142294108Y-84300500D01*
X142294109Y-84300500D01*
X142425892Y-84300500D01*
X142553188Y-84266392D01*
X142667314Y-84200500D01*
X142667317Y-84200498D01*
X142730995Y-84136819D01*
X142792318Y-84103334D01*
X142818676Y-84100500D01*
X147201324Y-84100500D01*
X147268363Y-84120185D01*
X147289005Y-84136819D01*
X147352686Y-84200500D01*
X147409750Y-84233446D01*
X147466813Y-84266392D01*
X147530461Y-84283446D01*
X147594108Y-84300500D01*
X147594109Y-84300500D01*
X147725892Y-84300500D01*
X147853188Y-84266392D01*
X147967314Y-84200500D01*
X147967317Y-84200498D01*
X148060498Y-84107317D01*
X148060500Y-84107314D01*
X148126392Y-83993188D01*
X148160500Y-83865892D01*
X148160500Y-83734109D01*
X148126392Y-83606813D01*
X148064434Y-83499500D01*
X148060500Y-83492686D01*
X147967314Y-83399500D01*
X147853186Y-83333608D01*
X147725892Y-83299500D01*
X147594108Y-83299500D01*
X147466814Y-83333608D01*
X147352686Y-83399500D01*
X147289005Y-83463181D01*
X147227682Y-83496666D01*
X147201324Y-83499500D01*
X142818676Y-83499500D01*
X142751637Y-83479815D01*
X142730995Y-83463181D01*
X142667317Y-83399503D01*
X142667314Y-83399500D01*
X142553186Y-83333608D01*
X142425892Y-83299500D01*
X142294108Y-83299500D01*
X142166814Y-83333608D01*
X142052686Y-83399500D01*
X141959500Y-83492686D01*
X141893608Y-83606814D01*
X141859500Y-83734108D01*
X134260500Y-83734108D01*
X134260500Y-82334108D01*
X144759500Y-82334108D01*
X144759500Y-82465892D01*
X144793608Y-82593186D01*
X144859500Y-82707314D01*
X144952686Y-82800500D01*
X145009750Y-82833446D01*
X145066813Y-82866392D01*
X145130461Y-82883446D01*
X145194108Y-82900500D01*
X145194109Y-82900500D01*
X145325892Y-82900500D01*
X145453188Y-82866392D01*
X145567314Y-82800500D01*
X145567317Y-82800498D01*
X145622319Y-82745495D01*
X145683642Y-82712010D01*
X145753334Y-82716994D01*
X145797681Y-82745495D01*
X145852686Y-82800500D01*
X145909750Y-82833446D01*
X145966813Y-82866392D01*
X146030461Y-82883446D01*
X146094108Y-82900500D01*
X146094109Y-82900500D01*
X146225892Y-82900500D01*
X146353188Y-82866392D01*
X146467314Y-82800500D01*
X146467317Y-82800498D01*
X146560498Y-82707317D01*
X146560500Y-82707314D01*
X146626392Y-82593188D01*
X146660500Y-82465892D01*
X146660500Y-82334109D01*
X146626392Y-82206813D01*
X146584080Y-82133528D01*
X146560500Y-82092686D01*
X146467314Y-81999500D01*
X146353186Y-81933608D01*
X146225892Y-81899500D01*
X146094108Y-81899500D01*
X145966814Y-81933608D01*
X145852686Y-81999500D01*
X145813966Y-82038220D01*
X145797681Y-82054505D01*
X145736358Y-82087990D01*
X145666666Y-82083006D01*
X145622319Y-82054505D01*
X145567317Y-81999503D01*
X145567314Y-81999500D01*
X145453186Y-81933608D01*
X145325892Y-81899500D01*
X145194108Y-81899500D01*
X145066814Y-81933608D01*
X144952686Y-81999500D01*
X144859500Y-82092686D01*
X144793608Y-82206814D01*
X144759500Y-82334108D01*
X134260500Y-82334108D01*
X134260500Y-80701507D01*
X148539500Y-80701507D01*
X148539500Y-81818494D01*
X148552331Y-81899501D01*
X148555281Y-81918126D01*
X148616472Y-82038220D01*
X148616474Y-82038222D01*
X148616477Y-82038226D01*
X148711775Y-82133524D01*
X148711779Y-82133527D01*
X148711780Y-82133528D01*
X148831874Y-82194719D01*
X148831876Y-82194720D01*
X148831879Y-82194721D01*
X148931507Y-82210500D01*
X148931512Y-82210500D01*
X151348493Y-82210500D01*
X151448122Y-82194721D01*
X151568222Y-82133527D01*
X151568226Y-82133524D01*
X151663524Y-82038226D01*
X151663527Y-82038222D01*
X151716830Y-81933609D01*
X151724719Y-81918126D01*
X151724720Y-81918126D01*
X151724721Y-81918122D01*
X151740500Y-81818494D01*
X151740500Y-80701507D01*
X151724721Y-80601879D01*
X151724720Y-80601876D01*
X151724719Y-80601874D01*
X151663528Y-80481780D01*
X151663527Y-80481779D01*
X151663524Y-80481775D01*
X151568226Y-80386477D01*
X151568222Y-80386474D01*
X151568220Y-80386472D01*
X151448126Y-80325281D01*
X151448124Y-80325281D01*
X151448122Y-80325280D01*
X151348493Y-80309500D01*
X151348488Y-80309500D01*
X148931512Y-80309500D01*
X148931507Y-80309500D01*
X148831879Y-80325280D01*
X148831879Y-80325281D01*
X148831874Y-80325281D01*
X148711780Y-80386472D01*
X148616472Y-80481780D01*
X148555281Y-80601874D01*
X148555281Y-80601879D01*
X148555280Y-80601879D01*
X148539500Y-80701507D01*
X134260500Y-80701507D01*
X134260500Y-78534108D01*
X144759500Y-78534108D01*
X144759500Y-78665892D01*
X144793608Y-78793186D01*
X144859500Y-78907314D01*
X144952686Y-79000500D01*
X145009750Y-79033446D01*
X145066813Y-79066392D01*
X145130461Y-79083446D01*
X145194108Y-79100500D01*
X145194109Y-79100500D01*
X145325892Y-79100500D01*
X145453188Y-79066392D01*
X145567314Y-79000500D01*
X145567317Y-79000498D01*
X145630995Y-78936819D01*
X145692318Y-78903334D01*
X145718676Y-78900500D01*
X146301324Y-78900500D01*
X146368363Y-78920185D01*
X146389005Y-78936819D01*
X146452686Y-79000500D01*
X146509750Y-79033446D01*
X146566813Y-79066392D01*
X146630461Y-79083446D01*
X146694108Y-79100500D01*
X146694109Y-79100500D01*
X146825892Y-79100500D01*
X146953188Y-79066392D01*
X147067314Y-79000500D01*
X147067317Y-79000498D01*
X147160498Y-78907317D01*
X147160500Y-78907314D01*
X147226392Y-78793188D01*
X147260500Y-78665892D01*
X147260500Y-78534109D01*
X147226392Y-78406813D01*
X147193446Y-78349750D01*
X147160500Y-78292686D01*
X147067314Y-78199500D01*
X147001508Y-78161507D01*
X148539500Y-78161507D01*
X148539500Y-79278494D01*
X148555280Y-79378122D01*
X148555281Y-79378126D01*
X148616472Y-79498220D01*
X148616474Y-79498222D01*
X148616477Y-79498226D01*
X148711775Y-79593524D01*
X148711779Y-79593527D01*
X148711780Y-79593528D01*
X148831874Y-79654719D01*
X148831876Y-79654720D01*
X148831879Y-79654721D01*
X148931507Y-79670500D01*
X148931512Y-79670500D01*
X151348493Y-79670500D01*
X151448122Y-79654721D01*
X151568222Y-79593527D01*
X151568226Y-79593524D01*
X151663524Y-79498226D01*
X151663527Y-79498222D01*
X151724721Y-79378122D01*
X151741132Y-79274507D01*
X151771062Y-79211373D01*
X151830374Y-79174442D01*
X151895697Y-79174132D01*
X151994108Y-79200500D01*
X151994109Y-79200500D01*
X152125892Y-79200500D01*
X152253188Y-79166392D01*
X152367314Y-79100500D01*
X152367317Y-79100498D01*
X152460498Y-79007317D01*
X152460500Y-79007314D01*
X152526392Y-78893188D01*
X152560500Y-78765892D01*
X152560500Y-78634109D01*
X152526392Y-78506813D01*
X152493446Y-78449750D01*
X152460500Y-78392686D01*
X152367314Y-78299500D01*
X152305873Y-78264027D01*
X152305872Y-78264026D01*
X152253190Y-78233610D01*
X152253189Y-78233610D01*
X152253186Y-78233608D01*
X152125892Y-78199500D01*
X151994108Y-78199500D01*
X151889618Y-78227498D01*
X151819771Y-78225835D01*
X151761908Y-78186673D01*
X151750560Y-78161507D01*
X163779500Y-78161507D01*
X163779500Y-79278494D01*
X163795279Y-79378122D01*
X163856473Y-79498222D01*
X163856476Y-79498226D01*
X163951774Y-79593524D01*
X163951778Y-79593527D01*
X164071878Y-79654721D01*
X164171507Y-79670500D01*
X164171512Y-79670500D01*
X166588493Y-79670500D01*
X166688121Y-79654721D01*
X166688124Y-79654720D01*
X166688126Y-79654719D01*
X166808220Y-79593528D01*
X166808221Y-79593527D01*
X166808225Y-79593524D01*
X166903523Y-79498226D01*
X166903526Y-79498222D01*
X166903528Y-79498220D01*
X166964719Y-79378126D01*
X166964720Y-79378122D01*
X166980500Y-79278494D01*
X166980500Y-78161507D01*
X166964720Y-78061879D01*
X166964719Y-78061879D01*
X166964719Y-78061874D01*
X166903528Y-77941780D01*
X166808220Y-77846472D01*
X166688126Y-77785281D01*
X166688121Y-77785281D01*
X166688121Y-77785280D01*
X166588493Y-77769500D01*
X166588488Y-77769500D01*
X164171512Y-77769500D01*
X164171507Y-77769500D01*
X164071878Y-77785280D01*
X164071876Y-77785281D01*
X164071874Y-77785281D01*
X163951780Y-77846472D01*
X163951778Y-77846474D01*
X163951774Y-77846477D01*
X163856476Y-77941775D01*
X163856473Y-77941779D01*
X163856472Y-77941780D01*
X163795281Y-78061874D01*
X163795280Y-78061876D01*
X163795279Y-78061879D01*
X163779500Y-78161507D01*
X151750560Y-78161507D01*
X151735054Y-78127121D01*
X151724721Y-78061879D01*
X151724720Y-78061876D01*
X151724719Y-78061874D01*
X151663528Y-77941780D01*
X151663527Y-77941779D01*
X151663524Y-77941775D01*
X151568226Y-77846477D01*
X151568222Y-77846474D01*
X151568220Y-77846472D01*
X151448126Y-77785281D01*
X151448124Y-77785281D01*
X151448122Y-77785280D01*
X151348493Y-77769500D01*
X151348488Y-77769500D01*
X148931512Y-77769500D01*
X148931507Y-77769500D01*
X148831879Y-77785280D01*
X148831879Y-77785281D01*
X148831874Y-77785281D01*
X148711780Y-77846472D01*
X148616472Y-77941780D01*
X148555281Y-78061874D01*
X148555281Y-78061879D01*
X148555280Y-78061879D01*
X148539500Y-78161507D01*
X147001508Y-78161507D01*
X146953186Y-78133608D01*
X146825892Y-78099500D01*
X146694108Y-78099500D01*
X146566814Y-78133608D01*
X146452686Y-78199500D01*
X146418578Y-78233608D01*
X146389005Y-78263181D01*
X146327682Y-78296666D01*
X146301324Y-78299500D01*
X145718676Y-78299500D01*
X145651637Y-78279815D01*
X145630995Y-78263181D01*
X145567317Y-78199503D01*
X145567314Y-78199500D01*
X145453186Y-78133608D01*
X145325892Y-78099500D01*
X145194108Y-78099500D01*
X145066814Y-78133608D01*
X144952686Y-78199500D01*
X144859500Y-78292686D01*
X144793608Y-78406814D01*
X144759500Y-78534108D01*
X134260500Y-78534108D01*
X134260500Y-76134108D01*
X145659500Y-76134108D01*
X145659500Y-76265892D01*
X145693608Y-76393186D01*
X145759500Y-76507314D01*
X145852686Y-76600500D01*
X145894255Y-76624500D01*
X145966813Y-76666392D01*
X146030461Y-76683446D01*
X146094108Y-76700500D01*
X146094109Y-76700500D01*
X146225892Y-76700500D01*
X146353188Y-76666392D01*
X146467314Y-76600500D01*
X146467317Y-76600498D01*
X146530995Y-76536819D01*
X146592318Y-76503334D01*
X146618676Y-76500500D01*
X148415500Y-76500500D01*
X148482539Y-76520185D01*
X148528294Y-76572989D01*
X148539500Y-76624500D01*
X148539500Y-76738494D01*
X148555280Y-76838122D01*
X148555281Y-76838126D01*
X148616472Y-76958220D01*
X148616474Y-76958222D01*
X148616477Y-76958226D01*
X148711775Y-77053524D01*
X148711779Y-77053527D01*
X148711780Y-77053528D01*
X148831874Y-77114719D01*
X148831876Y-77114720D01*
X148831879Y-77114721D01*
X148931507Y-77130500D01*
X148931512Y-77130500D01*
X151348493Y-77130500D01*
X151448122Y-77114721D01*
X151568222Y-77053527D01*
X151568226Y-77053524D01*
X151663524Y-76958226D01*
X151663527Y-76958222D01*
X151724721Y-76838122D01*
X151740500Y-76738494D01*
X151740500Y-75621507D01*
X163779500Y-75621507D01*
X163779500Y-76738494D01*
X163795279Y-76838122D01*
X163856473Y-76958222D01*
X163856476Y-76958226D01*
X163951774Y-77053524D01*
X163951778Y-77053527D01*
X164071878Y-77114721D01*
X164171507Y-77130500D01*
X164171512Y-77130500D01*
X166588493Y-77130500D01*
X166688121Y-77114721D01*
X166688124Y-77114720D01*
X166688126Y-77114719D01*
X166808220Y-77053528D01*
X166808221Y-77053527D01*
X166808225Y-77053524D01*
X166903523Y-76958226D01*
X166903526Y-76958222D01*
X166903528Y-76958220D01*
X166964719Y-76838126D01*
X166964720Y-76838122D01*
X166980500Y-76738494D01*
X166980500Y-75621507D01*
X166964720Y-75521879D01*
X166964719Y-75521879D01*
X166964719Y-75521874D01*
X166903528Y-75401780D01*
X166808220Y-75306472D01*
X166688126Y-75245281D01*
X166688121Y-75245281D01*
X166688121Y-75245280D01*
X166588493Y-75229500D01*
X166588488Y-75229500D01*
X164171512Y-75229500D01*
X164171507Y-75229500D01*
X164071878Y-75245280D01*
X164071876Y-75245281D01*
X164071874Y-75245281D01*
X163951780Y-75306472D01*
X163951778Y-75306474D01*
X163951774Y-75306477D01*
X163856476Y-75401775D01*
X163856473Y-75401779D01*
X163856472Y-75401780D01*
X163795281Y-75521874D01*
X163795280Y-75521876D01*
X163795279Y-75521879D01*
X163779500Y-75621507D01*
X151740500Y-75621507D01*
X151724721Y-75521879D01*
X151724720Y-75521876D01*
X151724719Y-75521874D01*
X151663528Y-75401780D01*
X151663527Y-75401779D01*
X151663524Y-75401775D01*
X151568226Y-75306477D01*
X151568222Y-75306474D01*
X151568220Y-75306472D01*
X151448126Y-75245281D01*
X151448124Y-75245281D01*
X151448122Y-75245280D01*
X151348493Y-75229500D01*
X151348488Y-75229500D01*
X148931512Y-75229500D01*
X148931507Y-75229500D01*
X148831879Y-75245280D01*
X148831879Y-75245281D01*
X148831874Y-75245281D01*
X148711780Y-75306472D01*
X148616472Y-75401780D01*
X148555281Y-75521874D01*
X148555281Y-75521879D01*
X148555280Y-75521879D01*
X148539500Y-75621507D01*
X148539500Y-75775500D01*
X148519815Y-75842539D01*
X148467011Y-75888294D01*
X148415500Y-75899500D01*
X146618676Y-75899500D01*
X146551637Y-75879815D01*
X146530995Y-75863181D01*
X146467317Y-75799503D01*
X146467314Y-75799500D01*
X146353186Y-75733608D01*
X146225892Y-75699500D01*
X146094108Y-75699500D01*
X145966814Y-75733608D01*
X145852686Y-75799500D01*
X145759500Y-75892686D01*
X145693608Y-76006814D01*
X145659500Y-76134108D01*
X134260500Y-76134108D01*
X134260500Y-73234108D01*
X142359500Y-73234108D01*
X142359500Y-73365892D01*
X142393608Y-73493186D01*
X142459500Y-73607314D01*
X142552686Y-73700500D01*
X142609750Y-73733446D01*
X142666813Y-73766392D01*
X142730461Y-73783446D01*
X142794108Y-73800500D01*
X142794109Y-73800500D01*
X142925892Y-73800500D01*
X143053188Y-73766392D01*
X143167314Y-73700500D01*
X143167317Y-73700498D01*
X143230995Y-73636819D01*
X143292318Y-73603334D01*
X143318676Y-73600500D01*
X144301324Y-73600500D01*
X144368363Y-73620185D01*
X144389005Y-73636819D01*
X144452686Y-73700500D01*
X144509750Y-73733446D01*
X144566813Y-73766392D01*
X144630461Y-73783446D01*
X144694108Y-73800500D01*
X144694109Y-73800500D01*
X144825892Y-73800500D01*
X144953188Y-73766392D01*
X145067314Y-73700500D01*
X145067317Y-73700498D01*
X145160498Y-73607317D01*
X145160500Y-73607314D01*
X145202766Y-73534108D01*
X147159500Y-73534108D01*
X147159500Y-73665892D01*
X147193608Y-73793186D01*
X147259500Y-73907314D01*
X147352686Y-74000500D01*
X147394255Y-74024500D01*
X147466813Y-74066392D01*
X147530461Y-74083446D01*
X147594108Y-74100500D01*
X147594109Y-74100500D01*
X147725892Y-74100500D01*
X147853188Y-74066392D01*
X147967314Y-74000500D01*
X147967317Y-74000498D01*
X148030995Y-73936819D01*
X148092318Y-73903334D01*
X148118676Y-73900500D01*
X148415500Y-73900500D01*
X148482539Y-73920185D01*
X148528294Y-73972989D01*
X148539500Y-74024500D01*
X148539500Y-74198494D01*
X148555280Y-74298122D01*
X148555281Y-74298126D01*
X148616472Y-74418220D01*
X148616474Y-74418222D01*
X148616477Y-74418226D01*
X148711775Y-74513524D01*
X148711779Y-74513527D01*
X148711780Y-74513528D01*
X148831874Y-74574719D01*
X148831876Y-74574720D01*
X148831879Y-74574721D01*
X148931507Y-74590500D01*
X148931512Y-74590500D01*
X151348493Y-74590500D01*
X151448122Y-74574721D01*
X151568222Y-74513527D01*
X151568226Y-74513524D01*
X151663524Y-74418226D01*
X151663527Y-74418222D01*
X151724721Y-74298122D01*
X151740500Y-74198494D01*
X151740500Y-73534109D01*
X161859500Y-73534109D01*
X161859500Y-73665892D01*
X161893608Y-73793188D01*
X161959500Y-73907314D01*
X161959502Y-73907317D01*
X162052683Y-74000498D01*
X162052686Y-74000500D01*
X162166812Y-74066392D01*
X162294108Y-74100500D01*
X162425891Y-74100500D01*
X162425892Y-74100500D01*
X162489539Y-74083446D01*
X162553187Y-74066392D01*
X162625745Y-74024500D01*
X162667314Y-74000500D01*
X162730995Y-73936819D01*
X162792318Y-73903334D01*
X162818676Y-73900500D01*
X163655500Y-73900500D01*
X163722539Y-73920185D01*
X163768294Y-73972989D01*
X163779500Y-74024500D01*
X163779500Y-74198494D01*
X163795279Y-74298122D01*
X163856473Y-74418222D01*
X163856476Y-74418226D01*
X163951774Y-74513524D01*
X163951778Y-74513527D01*
X164071878Y-74574721D01*
X164171507Y-74590500D01*
X164171512Y-74590500D01*
X166588493Y-74590500D01*
X166688121Y-74574721D01*
X166688124Y-74574720D01*
X166688126Y-74574719D01*
X166808220Y-74513528D01*
X166808221Y-74513527D01*
X166808225Y-74513524D01*
X166903523Y-74418226D01*
X166903526Y-74418222D01*
X166903528Y-74418220D01*
X166964719Y-74298126D01*
X166964720Y-74298122D01*
X166980500Y-74198494D01*
X166980500Y-74024500D01*
X167000185Y-73957461D01*
X167052989Y-73911706D01*
X167104500Y-73900500D01*
X168501324Y-73900500D01*
X168568363Y-73920185D01*
X168589005Y-73936819D01*
X168652683Y-74000498D01*
X168652686Y-74000500D01*
X168766812Y-74066392D01*
X168894108Y-74100500D01*
X169025891Y-74100500D01*
X169025892Y-74100500D01*
X169089539Y-74083446D01*
X169153187Y-74066392D01*
X169225745Y-74024500D01*
X169267314Y-74000500D01*
X169360500Y-73907314D01*
X169426392Y-73793186D01*
X169460500Y-73665892D01*
X169460500Y-73534108D01*
X169426392Y-73406814D01*
X169360500Y-73292686D01*
X169267314Y-73199500D01*
X169153186Y-73133608D01*
X169025892Y-73099500D01*
X168894108Y-73099500D01*
X168766814Y-73133608D01*
X168652686Y-73199500D01*
X168652683Y-73199503D01*
X168589005Y-73263181D01*
X168527682Y-73296666D01*
X168501324Y-73299500D01*
X167104500Y-73299500D01*
X167037461Y-73279815D01*
X166991706Y-73227011D01*
X166980500Y-73175500D01*
X166980500Y-73081507D01*
X166964720Y-72981879D01*
X166964719Y-72981879D01*
X166964719Y-72981874D01*
X166903528Y-72861780D01*
X166808220Y-72766472D01*
X166688126Y-72705281D01*
X166688121Y-72705281D01*
X166688121Y-72705280D01*
X166588493Y-72689500D01*
X166588488Y-72689500D01*
X164171512Y-72689500D01*
X164171507Y-72689500D01*
X164071878Y-72705280D01*
X164071876Y-72705281D01*
X164071874Y-72705281D01*
X163951780Y-72766472D01*
X163951778Y-72766474D01*
X163951774Y-72766477D01*
X163856476Y-72861775D01*
X163856473Y-72861779D01*
X163856472Y-72861780D01*
X163795281Y-72981874D01*
X163795280Y-72981876D01*
X163795279Y-72981879D01*
X163779500Y-73081507D01*
X163779500Y-73175500D01*
X163759815Y-73242539D01*
X163707011Y-73288294D01*
X163655500Y-73299500D01*
X162818676Y-73299500D01*
X162751637Y-73279815D01*
X162730995Y-73263181D01*
X162701922Y-73234108D01*
X162667314Y-73199500D01*
X162553186Y-73133608D01*
X162425892Y-73099500D01*
X162294108Y-73099500D01*
X162166814Y-73133608D01*
X162052686Y-73199500D01*
X161959500Y-73292686D01*
X161955566Y-73299500D01*
X161893608Y-73406813D01*
X161859500Y-73534109D01*
X151740500Y-73534109D01*
X151740500Y-73081507D01*
X151724721Y-72981879D01*
X151724720Y-72981876D01*
X151724719Y-72981874D01*
X151663528Y-72861780D01*
X151663527Y-72861779D01*
X151663524Y-72861775D01*
X151568226Y-72766477D01*
X151568222Y-72766474D01*
X151568220Y-72766472D01*
X151448126Y-72705281D01*
X151448124Y-72705281D01*
X151448122Y-72705280D01*
X151348493Y-72689500D01*
X151348488Y-72689500D01*
X148931512Y-72689500D01*
X148931507Y-72689500D01*
X148831879Y-72705280D01*
X148831879Y-72705281D01*
X148831874Y-72705281D01*
X148711780Y-72766472D01*
X148616472Y-72861780D01*
X148555281Y-72981874D01*
X148555281Y-72981879D01*
X148555280Y-72981879D01*
X148539500Y-73081507D01*
X148539500Y-73175500D01*
X148519815Y-73242539D01*
X148467011Y-73288294D01*
X148415500Y-73299500D01*
X148118676Y-73299500D01*
X148051637Y-73279815D01*
X148030995Y-73263181D01*
X147967317Y-73199503D01*
X147967314Y-73199500D01*
X147853186Y-73133608D01*
X147725892Y-73099500D01*
X147594108Y-73099500D01*
X147466814Y-73133608D01*
X147352686Y-73199500D01*
X147259500Y-73292686D01*
X147193608Y-73406814D01*
X147159500Y-73534108D01*
X145202766Y-73534108D01*
X145226393Y-73493186D01*
X145260500Y-73365892D01*
X145260500Y-73234109D01*
X145251494Y-73200499D01*
X145233572Y-73133609D01*
X145226392Y-73106813D01*
X145193446Y-73049750D01*
X145160500Y-72992686D01*
X145067314Y-72899500D01*
X144953186Y-72833608D01*
X144825892Y-72799500D01*
X144694108Y-72799500D01*
X144566814Y-72833608D01*
X144452686Y-72899500D01*
X144389005Y-72963181D01*
X144327682Y-72996666D01*
X144301324Y-72999500D01*
X143318676Y-72999500D01*
X143251637Y-72979815D01*
X143230995Y-72963181D01*
X143167317Y-72899503D01*
X143167314Y-72899500D01*
X143053186Y-72833608D01*
X142925892Y-72799500D01*
X142794108Y-72799500D01*
X142666814Y-72833608D01*
X142552686Y-72899500D01*
X142459500Y-72992686D01*
X142393608Y-73106814D01*
X142359500Y-73234108D01*
X134260500Y-73234108D01*
X134260500Y-71388543D01*
X136059500Y-71388543D01*
X136059500Y-71611457D01*
X136088596Y-71832463D01*
X136146290Y-72047781D01*
X136231595Y-72253726D01*
X136343052Y-72446774D01*
X136343059Y-72446783D01*
X136478752Y-72623623D01*
X136478758Y-72623630D01*
X136636371Y-72781243D01*
X136636378Y-72781249D01*
X136741328Y-72861779D01*
X136813226Y-72916948D01*
X137006274Y-73028405D01*
X137006278Y-73028407D01*
X137212210Y-73113707D01*
X137212217Y-73113709D01*
X137212219Y-73113710D01*
X137427537Y-73171404D01*
X137427543Y-73171405D01*
X137427548Y-73171406D01*
X137648534Y-73200499D01*
X137648537Y-73200500D01*
X137648543Y-73200500D01*
X137648550Y-73200500D01*
X137871450Y-73200500D01*
X137871457Y-73200500D01*
X137871463Y-73200500D01*
X137871467Y-73200499D01*
X138092453Y-73171406D01*
X138092460Y-73171405D01*
X138092463Y-73171404D01*
X138307781Y-73113710D01*
X138307785Y-73113709D01*
X138311863Y-73112020D01*
X138313310Y-73111420D01*
X138313311Y-73111420D01*
X138513723Y-73028407D01*
X138513727Y-73028405D01*
X138706774Y-72916948D01*
X138706783Y-72916942D01*
X138883623Y-72781249D01*
X138883630Y-72781243D01*
X139041243Y-72623630D01*
X139041249Y-72623623D01*
X139176942Y-72446783D01*
X139176948Y-72446774D01*
X139288405Y-72253727D01*
X139288407Y-72253723D01*
X139373707Y-72047791D01*
X139373710Y-72047781D01*
X139419143Y-71878222D01*
X139431404Y-71832463D01*
X139431405Y-71832460D01*
X139431406Y-71832453D01*
X139460499Y-71611467D01*
X139460500Y-71611451D01*
X139460500Y-71388550D01*
X139460499Y-71388534D01*
X139431406Y-71167548D01*
X139431405Y-71167543D01*
X139431404Y-71167537D01*
X139385912Y-70997758D01*
X144229300Y-70997758D01*
X144229300Y-71129542D01*
X144263408Y-71256836D01*
X144329300Y-71370964D01*
X144422486Y-71464150D01*
X144437796Y-71472989D01*
X144536613Y-71530042D01*
X144600261Y-71547096D01*
X144663908Y-71564150D01*
X144663909Y-71564150D01*
X144795692Y-71564150D01*
X144922988Y-71530042D01*
X145037114Y-71464150D01*
X145037117Y-71464148D01*
X145064445Y-71436819D01*
X145091373Y-71422116D01*
X145117191Y-71405523D01*
X145123392Y-71404632D01*
X145125768Y-71403334D01*
X145152126Y-71400500D01*
X145301324Y-71400500D01*
X145368363Y-71420185D01*
X145389005Y-71436819D01*
X145452686Y-71500500D01*
X145494255Y-71524500D01*
X145566813Y-71566392D01*
X145630461Y-71583446D01*
X145694108Y-71600500D01*
X145694109Y-71600500D01*
X145825892Y-71600500D01*
X145953188Y-71566392D01*
X146067314Y-71500500D01*
X146067317Y-71500498D01*
X146130995Y-71436819D01*
X146157923Y-71422116D01*
X146183741Y-71405523D01*
X146189942Y-71404632D01*
X146192318Y-71403334D01*
X146218676Y-71400500D01*
X146301324Y-71400500D01*
X146368363Y-71420185D01*
X146389005Y-71436819D01*
X146452686Y-71500500D01*
X146494255Y-71524500D01*
X146566813Y-71566392D01*
X146630461Y-71583446D01*
X146694108Y-71600500D01*
X146694109Y-71600500D01*
X146825892Y-71600500D01*
X146953188Y-71566392D01*
X147067314Y-71500500D01*
X147067317Y-71500498D01*
X147160498Y-71407317D01*
X147160500Y-71407314D01*
X147226392Y-71293188D01*
X147260500Y-71165892D01*
X147260500Y-71034109D01*
X147226392Y-70906813D01*
X147162904Y-70796850D01*
X147160500Y-70792686D01*
X147067314Y-70699500D01*
X146963718Y-70639689D01*
X146953188Y-70633609D01*
X146953186Y-70633608D01*
X146825892Y-70599500D01*
X146694108Y-70599500D01*
X146566814Y-70633608D01*
X146452686Y-70699500D01*
X146388187Y-70764000D01*
X146387363Y-70764793D01*
X146357378Y-70780451D01*
X146327682Y-70796666D01*
X146325974Y-70796850D01*
X146325429Y-70797134D01*
X146324288Y-70797032D01*
X146301324Y-70799500D01*
X146218676Y-70799500D01*
X146151637Y-70779815D01*
X146130995Y-70763181D01*
X146067317Y-70699503D01*
X146067314Y-70699500D01*
X145974061Y-70645660D01*
X145958866Y-70636887D01*
X145910650Y-70586320D01*
X145902014Y-70541507D01*
X148539500Y-70541507D01*
X148539500Y-71658494D01*
X148555280Y-71758122D01*
X148555281Y-71758126D01*
X148616472Y-71878220D01*
X148616474Y-71878222D01*
X148616477Y-71878226D01*
X148711775Y-71973524D01*
X148711779Y-71973527D01*
X148711780Y-71973528D01*
X148831874Y-72034719D01*
X148831876Y-72034720D01*
X148831879Y-72034721D01*
X148931507Y-72050500D01*
X148931512Y-72050500D01*
X151348493Y-72050500D01*
X151448122Y-72034721D01*
X151568222Y-71973527D01*
X151568226Y-71973524D01*
X151663524Y-71878226D01*
X151663527Y-71878222D01*
X151724721Y-71758122D01*
X151740500Y-71658494D01*
X151740500Y-71034109D01*
X162559500Y-71034109D01*
X162559500Y-71165892D01*
X162593608Y-71293188D01*
X162659500Y-71407314D01*
X162659502Y-71407317D01*
X162752683Y-71500498D01*
X162752686Y-71500500D01*
X162866812Y-71566392D01*
X162994108Y-71600500D01*
X163125891Y-71600500D01*
X163125892Y-71600500D01*
X163189539Y-71583446D01*
X163253187Y-71566392D01*
X163325745Y-71524500D01*
X163367314Y-71500500D01*
X163430995Y-71436819D01*
X163457922Y-71422116D01*
X163483741Y-71405523D01*
X163489941Y-71404632D01*
X163492318Y-71403334D01*
X163518676Y-71400500D01*
X163655500Y-71400500D01*
X163722539Y-71420185D01*
X163768294Y-71472989D01*
X163779500Y-71524500D01*
X163779500Y-71658494D01*
X163795279Y-71758122D01*
X163856473Y-71878222D01*
X163856476Y-71878226D01*
X163951774Y-71973524D01*
X163951778Y-71973527D01*
X164071878Y-72034721D01*
X164171507Y-72050500D01*
X164171512Y-72050500D01*
X166588493Y-72050500D01*
X166688121Y-72034721D01*
X166688124Y-72034720D01*
X166688126Y-72034719D01*
X166808220Y-71973528D01*
X166808221Y-71973527D01*
X166808225Y-71973524D01*
X166903523Y-71878226D01*
X166903526Y-71878222D01*
X166903528Y-71878220D01*
X166964719Y-71758126D01*
X166964720Y-71758122D01*
X166980500Y-71658494D01*
X166980500Y-71524500D01*
X167000185Y-71457461D01*
X167052989Y-71411706D01*
X167104500Y-71400500D01*
X168501324Y-71400500D01*
X168568363Y-71420185D01*
X168589005Y-71436819D01*
X168652683Y-71500498D01*
X168652686Y-71500500D01*
X168766812Y-71566392D01*
X168894108Y-71600500D01*
X169025891Y-71600500D01*
X169025892Y-71600500D01*
X169089539Y-71583446D01*
X169153187Y-71566392D01*
X169225745Y-71524500D01*
X169267314Y-71500500D01*
X169360500Y-71407314D01*
X169371333Y-71388550D01*
X176059500Y-71388550D01*
X176059500Y-71611451D01*
X176059501Y-71611467D01*
X176088594Y-71832453D01*
X176088595Y-71832460D01*
X176088596Y-71832463D01*
X176100857Y-71878222D01*
X176146290Y-72047781D01*
X176146293Y-72047791D01*
X176231593Y-72253723D01*
X176231595Y-72253727D01*
X176343052Y-72446774D01*
X176343058Y-72446783D01*
X176478751Y-72623623D01*
X176478757Y-72623630D01*
X176636370Y-72781243D01*
X176636377Y-72781249D01*
X176813217Y-72916942D01*
X176813226Y-72916948D01*
X177006273Y-73028405D01*
X177006277Y-73028407D01*
X177212209Y-73113707D01*
X177212219Y-73113710D01*
X177427537Y-73171404D01*
X177427540Y-73171405D01*
X177427547Y-73171406D01*
X177648533Y-73200499D01*
X177648537Y-73200500D01*
X177648543Y-73200500D01*
X177648550Y-73200500D01*
X177871450Y-73200500D01*
X177871457Y-73200500D01*
X177871463Y-73200500D01*
X177871466Y-73200499D01*
X178092452Y-73171406D01*
X178092457Y-73171405D01*
X178092463Y-73171404D01*
X178307781Y-73113710D01*
X178307783Y-73113709D01*
X178307790Y-73113707D01*
X178513722Y-73028407D01*
X178513726Y-73028405D01*
X178706774Y-72916948D01*
X178778672Y-72861779D01*
X178883622Y-72781249D01*
X178883629Y-72781243D01*
X179041242Y-72623630D01*
X179041248Y-72623623D01*
X179176941Y-72446783D01*
X179176948Y-72446774D01*
X179288405Y-72253726D01*
X179373710Y-72047781D01*
X179431404Y-71832463D01*
X179460500Y-71611457D01*
X179460500Y-71388543D01*
X179431404Y-71167537D01*
X179373710Y-70952219D01*
X179288405Y-70746274D01*
X179176948Y-70553226D01*
X179041247Y-70376376D01*
X178883624Y-70218753D01*
X178706774Y-70083052D01*
X178513726Y-69971595D01*
X178307781Y-69886290D01*
X178092463Y-69828596D01*
X177871457Y-69799500D01*
X177648543Y-69799500D01*
X177427537Y-69828596D01*
X177212219Y-69886290D01*
X177006274Y-69971595D01*
X176813226Y-70083052D01*
X176813217Y-70083059D01*
X176636377Y-70218752D01*
X176636370Y-70218758D01*
X176478757Y-70376371D01*
X176478751Y-70376378D01*
X176343058Y-70553218D01*
X176343052Y-70553226D01*
X176255425Y-70705000D01*
X176231595Y-70746274D01*
X176231593Y-70746278D01*
X176146293Y-70952210D01*
X176146291Y-70952217D01*
X176146290Y-70952219D01*
X176088596Y-71167537D01*
X176088595Y-71167543D01*
X176088594Y-71167548D01*
X176059501Y-71388534D01*
X176059500Y-71388550D01*
X169371333Y-71388550D01*
X169426392Y-71293186D01*
X169460500Y-71165892D01*
X169460500Y-71034108D01*
X169426392Y-70906814D01*
X169360500Y-70792686D01*
X169267314Y-70699500D01*
X169153186Y-70633608D01*
X169025892Y-70599500D01*
X168894108Y-70599500D01*
X168766814Y-70633608D01*
X168766812Y-70633609D01*
X168751521Y-70642437D01*
X168652686Y-70699500D01*
X168652683Y-70699503D01*
X168589005Y-70763181D01*
X168527682Y-70796666D01*
X168501324Y-70799500D01*
X167104500Y-70799500D01*
X167037461Y-70779815D01*
X166991706Y-70727011D01*
X166980500Y-70675500D01*
X166980500Y-70541507D01*
X166964720Y-70441879D01*
X166964719Y-70441879D01*
X166964719Y-70441874D01*
X166903528Y-70321780D01*
X166808220Y-70226472D01*
X166688126Y-70165281D01*
X166688121Y-70165281D01*
X166688121Y-70165280D01*
X166588493Y-70149500D01*
X166588488Y-70149500D01*
X164171512Y-70149500D01*
X164171507Y-70149500D01*
X164071878Y-70165280D01*
X164071876Y-70165281D01*
X164071874Y-70165281D01*
X163951780Y-70226472D01*
X163951778Y-70226474D01*
X163951774Y-70226477D01*
X163856476Y-70321775D01*
X163856473Y-70321779D01*
X163856472Y-70321780D01*
X163795281Y-70441874D01*
X163795280Y-70441876D01*
X163795279Y-70441879D01*
X163779500Y-70541507D01*
X163779500Y-70675500D01*
X163776949Y-70684186D01*
X163778238Y-70693147D01*
X163767259Y-70717188D01*
X163759815Y-70742539D01*
X163752974Y-70748467D01*
X163749213Y-70756703D01*
X163726978Y-70770993D01*
X163707011Y-70788294D01*
X163696496Y-70790582D01*
X163690435Y-70794477D01*
X163655500Y-70799500D01*
X163518676Y-70799500D01*
X163451637Y-70779815D01*
X163430995Y-70763181D01*
X163410353Y-70742539D01*
X163367314Y-70699500D01*
X163253186Y-70633608D01*
X163125892Y-70599500D01*
X162994108Y-70599500D01*
X162866814Y-70633608D01*
X162866812Y-70633609D01*
X162851521Y-70642437D01*
X162752686Y-70699500D01*
X162659500Y-70792686D01*
X162657096Y-70796850D01*
X162593608Y-70906813D01*
X162559500Y-71034109D01*
X151740500Y-71034109D01*
X151740500Y-70541507D01*
X151724721Y-70441879D01*
X151724720Y-70441876D01*
X151724719Y-70441874D01*
X151663528Y-70321780D01*
X151663527Y-70321779D01*
X151663524Y-70321775D01*
X151568226Y-70226477D01*
X151568222Y-70226474D01*
X151568220Y-70226472D01*
X151448126Y-70165281D01*
X151448124Y-70165281D01*
X151448122Y-70165280D01*
X151348493Y-70149500D01*
X151348488Y-70149500D01*
X148931512Y-70149500D01*
X148931507Y-70149500D01*
X148831879Y-70165280D01*
X148831879Y-70165281D01*
X148831874Y-70165281D01*
X148711780Y-70226472D01*
X148616472Y-70321780D01*
X148555281Y-70441874D01*
X148555281Y-70441879D01*
X148555280Y-70441879D01*
X148539500Y-70541507D01*
X145902014Y-70541507D01*
X145897428Y-70517713D01*
X145923396Y-70452848D01*
X145980310Y-70412320D01*
X146020866Y-70405500D01*
X146484030Y-70405500D01*
X146484034Y-70405500D01*
X146507872Y-70405499D01*
X146567483Y-70399091D01*
X146680768Y-70356839D01*
X146680778Y-70356836D01*
X146702329Y-70348798D01*
X146702336Y-70348794D01*
X146817545Y-70262548D01*
X146817548Y-70262545D01*
X146903794Y-70147336D01*
X146903798Y-70147329D01*
X146954092Y-70012483D01*
X146960499Y-69952884D01*
X146960500Y-69952881D01*
X146960500Y-69952873D01*
X146960500Y-69205001D01*
X146960500Y-68457130D01*
X146960499Y-68457124D01*
X146954092Y-68397517D01*
X146903798Y-68262672D01*
X146903794Y-68262665D01*
X146817548Y-68147456D01*
X146817547Y-68147456D01*
X146817546Y-68147454D01*
X146702331Y-68061204D01*
X146702329Y-68061203D01*
X146567483Y-68010909D01*
X146567484Y-68010909D01*
X146561075Y-68010221D01*
X146507873Y-68004500D01*
X145012128Y-68004501D01*
X144952517Y-68010909D01*
X144817669Y-68061204D01*
X144702454Y-68147454D01*
X144616204Y-68262669D01*
X144565909Y-68397517D01*
X144559500Y-68457127D01*
X144559501Y-69952872D01*
X144561514Y-69971594D01*
X144565909Y-70012484D01*
X144616203Y-70147329D01*
X144616207Y-70147336D01*
X144702453Y-70262545D01*
X144702456Y-70262548D01*
X144805763Y-70339884D01*
X144847634Y-70395818D01*
X144852618Y-70465509D01*
X144819132Y-70526832D01*
X144757809Y-70560316D01*
X144731452Y-70563150D01*
X144663908Y-70563150D01*
X144536614Y-70597258D01*
X144422486Y-70663150D01*
X144329300Y-70756336D01*
X144263408Y-70870464D01*
X144229300Y-70997758D01*
X139385912Y-70997758D01*
X139373710Y-70952219D01*
X139373709Y-70952217D01*
X139373707Y-70952210D01*
X139288407Y-70746278D01*
X139288405Y-70746274D01*
X139264575Y-70705000D01*
X139176948Y-70553226D01*
X139176942Y-70553218D01*
X139041249Y-70376378D01*
X139041243Y-70376371D01*
X138883630Y-70218758D01*
X138883623Y-70218752D01*
X138706783Y-70083059D01*
X138706774Y-70083052D01*
X138513726Y-69971595D01*
X138307781Y-69886290D01*
X138092463Y-69828596D01*
X137871457Y-69799500D01*
X137648543Y-69799500D01*
X137427537Y-69828596D01*
X137212219Y-69886290D01*
X137006274Y-69971595D01*
X136813226Y-70083052D01*
X136636376Y-70218753D01*
X136478753Y-70376376D01*
X136343052Y-70553226D01*
X136231595Y-70746274D01*
X136146290Y-70952219D01*
X136088596Y-71167537D01*
X136059500Y-71388543D01*
X134260500Y-71388543D01*
X134260500Y-68102075D01*
X134280185Y-68035036D01*
X134318879Y-68001507D01*
X148539500Y-68001507D01*
X148539500Y-69118494D01*
X148544861Y-69152339D01*
X148555281Y-69218126D01*
X148616472Y-69338220D01*
X148616474Y-69338222D01*
X148616477Y-69338226D01*
X148711775Y-69433524D01*
X148711779Y-69433527D01*
X148711780Y-69433528D01*
X148831874Y-69494719D01*
X148831876Y-69494720D01*
X148831879Y-69494721D01*
X148931507Y-69510500D01*
X148931512Y-69510500D01*
X151348493Y-69510500D01*
X151448122Y-69494721D01*
X151568222Y-69433527D01*
X151568226Y-69433524D01*
X151663524Y-69338226D01*
X151663527Y-69338222D01*
X151724721Y-69218122D01*
X151740500Y-69118494D01*
X151740500Y-69086948D01*
X156260000Y-69086948D01*
X156260000Y-69323053D01*
X156296935Y-69556248D01*
X156369898Y-69780803D01*
X156477086Y-69991172D01*
X156537342Y-70074106D01*
X156537342Y-70074107D01*
X157360000Y-69251448D01*
X157360000Y-69257661D01*
X157387259Y-69359394D01*
X157439920Y-69450606D01*
X157514394Y-69525080D01*
X157605606Y-69577741D01*
X157707339Y-69605000D01*
X157713553Y-69605000D01*
X156890895Y-70427660D01*
X156890896Y-70427662D01*
X156973826Y-70487913D01*
X157184198Y-70595103D01*
X157408753Y-70668066D01*
X157408752Y-70668066D01*
X157641948Y-70705000D01*
X157878052Y-70705000D01*
X158111247Y-70668066D01*
X158335802Y-70595103D01*
X158546174Y-70487913D01*
X158629104Y-70427662D01*
X158629105Y-70427660D01*
X157806447Y-69605000D01*
X157812661Y-69605000D01*
X157914394Y-69577741D01*
X158005606Y-69525080D01*
X158080080Y-69450606D01*
X158132741Y-69359394D01*
X158160000Y-69257661D01*
X158160000Y-69251448D01*
X158982658Y-70074107D01*
X158982658Y-70074106D01*
X159042914Y-69991172D01*
X159150102Y-69780803D01*
X159223065Y-69556248D01*
X159260000Y-69323053D01*
X159260000Y-69086948D01*
X159223065Y-68853753D01*
X159150102Y-68629198D01*
X159042918Y-68418837D01*
X159042914Y-68418831D01*
X158982658Y-68335896D01*
X158982658Y-68335895D01*
X158160000Y-69158554D01*
X158160000Y-69152339D01*
X158132741Y-69050606D01*
X158080080Y-68959394D01*
X158005606Y-68884920D01*
X157914394Y-68832259D01*
X157812661Y-68805000D01*
X157806446Y-68805000D01*
X158609940Y-68001507D01*
X163779500Y-68001507D01*
X163779500Y-69118494D01*
X163795279Y-69218122D01*
X163856473Y-69338222D01*
X163856476Y-69338226D01*
X163951774Y-69433524D01*
X163951778Y-69433527D01*
X164071878Y-69494721D01*
X164171507Y-69510500D01*
X164171512Y-69510500D01*
X166588493Y-69510500D01*
X166688121Y-69494721D01*
X166688124Y-69494720D01*
X166688126Y-69494719D01*
X166808220Y-69433528D01*
X166808221Y-69433527D01*
X166808225Y-69433524D01*
X166903523Y-69338226D01*
X166903526Y-69338222D01*
X166903528Y-69338220D01*
X166964719Y-69218126D01*
X166975139Y-69152339D01*
X166980500Y-69118494D01*
X166980500Y-68001507D01*
X166964720Y-67901879D01*
X166964719Y-67901879D01*
X166964719Y-67901874D01*
X166903528Y-67781780D01*
X166808220Y-67686472D01*
X166688126Y-67625281D01*
X166688121Y-67625281D01*
X166688121Y-67625280D01*
X166588493Y-67609500D01*
X166588488Y-67609500D01*
X164171512Y-67609500D01*
X164171507Y-67609500D01*
X164071878Y-67625280D01*
X164071876Y-67625281D01*
X164071874Y-67625281D01*
X163951780Y-67686472D01*
X163951778Y-67686474D01*
X163951774Y-67686477D01*
X163856476Y-67781775D01*
X163856473Y-67781779D01*
X163856472Y-67781780D01*
X163795281Y-67901874D01*
X163795280Y-67901876D01*
X163795279Y-67901879D01*
X163779500Y-68001507D01*
X158609940Y-68001507D01*
X158629105Y-67982342D01*
X158546169Y-67922086D01*
X158546163Y-67922082D01*
X158335802Y-67814898D01*
X158111247Y-67741935D01*
X158111248Y-67741935D01*
X157878052Y-67705000D01*
X157641948Y-67705000D01*
X157408753Y-67741935D01*
X157184198Y-67814898D01*
X156973837Y-67922082D01*
X156973831Y-67922086D01*
X156890896Y-67982342D01*
X156890895Y-67982342D01*
X157713554Y-68805000D01*
X157707339Y-68805000D01*
X157605606Y-68832259D01*
X157514394Y-68884920D01*
X157439920Y-68959394D01*
X157387259Y-69050606D01*
X157360000Y-69152339D01*
X157360000Y-69158554D01*
X156537342Y-68335895D01*
X156537342Y-68335896D01*
X156477086Y-68418831D01*
X156477082Y-68418837D01*
X156369898Y-68629198D01*
X156296935Y-68853753D01*
X156260000Y-69086948D01*
X151740500Y-69086948D01*
X151740500Y-68001507D01*
X151724721Y-67901879D01*
X151724720Y-67901876D01*
X151724719Y-67901874D01*
X151663528Y-67781780D01*
X151663527Y-67781779D01*
X151663524Y-67781775D01*
X151568226Y-67686477D01*
X151568222Y-67686474D01*
X151568220Y-67686472D01*
X151448126Y-67625281D01*
X151448124Y-67625281D01*
X151448122Y-67625280D01*
X151348493Y-67609500D01*
X151348488Y-67609500D01*
X148931512Y-67609500D01*
X148931507Y-67609500D01*
X148831879Y-67625280D01*
X148831879Y-67625281D01*
X148831874Y-67625281D01*
X148711780Y-67686472D01*
X148616472Y-67781780D01*
X148555281Y-67901874D01*
X148555281Y-67901879D01*
X148555280Y-67901879D01*
X148539500Y-68001507D01*
X134318879Y-68001507D01*
X134332989Y-67989281D01*
X134376390Y-67978341D01*
X134593623Y-67964102D01*
X134593642Y-67964101D01*
X135145434Y-67891456D01*
X135145445Y-67891454D01*
X135691280Y-67782880D01*
X135691320Y-67782870D01*
X136228882Y-67638831D01*
X136228897Y-67638827D01*
X136755904Y-67459931D01*
X136755915Y-67459927D01*
X137270099Y-67246945D01*
X137769256Y-67000789D01*
X138251237Y-66722516D01*
X138251262Y-66722500D01*
X138714006Y-66413305D01*
X139155543Y-66074501D01*
X139573994Y-65707529D01*
X139820015Y-65461507D01*
X148539500Y-65461507D01*
X148539500Y-66578494D01*
X148555280Y-66678122D01*
X148555281Y-66678126D01*
X148616472Y-66798220D01*
X148616474Y-66798222D01*
X148616477Y-66798226D01*
X148711775Y-66893524D01*
X148711779Y-66893527D01*
X148711780Y-66893528D01*
X148831874Y-66954719D01*
X148831876Y-66954720D01*
X148831879Y-66954721D01*
X148931507Y-66970500D01*
X148931512Y-66970500D01*
X151348493Y-66970500D01*
X151448122Y-66954721D01*
X151568222Y-66893527D01*
X151568226Y-66893524D01*
X151663524Y-66798226D01*
X151663527Y-66798222D01*
X151724721Y-66678122D01*
X151740500Y-66578494D01*
X151740500Y-65461507D01*
X163779500Y-65461507D01*
X163779500Y-66578494D01*
X163795279Y-66678122D01*
X163856473Y-66798222D01*
X163856476Y-66798226D01*
X163951774Y-66893524D01*
X163951778Y-66893527D01*
X164071878Y-66954721D01*
X164171507Y-66970500D01*
X164171512Y-66970500D01*
X166588493Y-66970500D01*
X166688121Y-66954721D01*
X166688124Y-66954720D01*
X166688126Y-66954719D01*
X166808220Y-66893528D01*
X166808221Y-66893527D01*
X166808225Y-66893524D01*
X166903523Y-66798226D01*
X166903526Y-66798222D01*
X166903528Y-66798220D01*
X166964719Y-66678126D01*
X166964720Y-66678122D01*
X166980500Y-66578494D01*
X166980500Y-65461507D01*
X166964720Y-65361879D01*
X166964719Y-65361879D01*
X166964719Y-65361874D01*
X166903528Y-65241780D01*
X166808220Y-65146472D01*
X166688126Y-65085281D01*
X166688121Y-65085281D01*
X166688121Y-65085280D01*
X166588493Y-65069500D01*
X166588488Y-65069500D01*
X164171512Y-65069500D01*
X164171507Y-65069500D01*
X164071878Y-65085280D01*
X164071876Y-65085281D01*
X164071874Y-65085281D01*
X163951780Y-65146472D01*
X163951778Y-65146474D01*
X163951774Y-65146477D01*
X163856476Y-65241775D01*
X163856473Y-65241779D01*
X163856472Y-65241780D01*
X163795281Y-65361874D01*
X163795280Y-65361876D01*
X163795279Y-65361879D01*
X163779500Y-65461507D01*
X151740500Y-65461507D01*
X151724721Y-65361879D01*
X151724720Y-65361876D01*
X151724719Y-65361874D01*
X151663528Y-65241780D01*
X151663527Y-65241779D01*
X151663524Y-65241775D01*
X151568226Y-65146477D01*
X151568222Y-65146474D01*
X151568220Y-65146472D01*
X151448126Y-65085281D01*
X151448124Y-65085281D01*
X151448122Y-65085280D01*
X151348493Y-65069500D01*
X151348488Y-65069500D01*
X148931512Y-65069500D01*
X148931507Y-65069500D01*
X148831879Y-65085280D01*
X148831879Y-65085281D01*
X148831874Y-65085281D01*
X148711780Y-65146472D01*
X148616472Y-65241780D01*
X148555281Y-65361874D01*
X148555281Y-65361879D01*
X148555280Y-65361879D01*
X148539500Y-65461507D01*
X139820015Y-65461507D01*
X139912563Y-65368959D01*
X139967529Y-65313994D01*
X140334501Y-64895543D01*
X140673305Y-64454006D01*
X140982500Y-63991262D01*
X140982516Y-63991237D01*
X141198791Y-63616638D01*
X141260789Y-63509256D01*
X141506948Y-63010093D01*
X141549778Y-62906691D01*
X148240000Y-62906691D01*
X148240000Y-63230000D01*
X149764722Y-63230000D01*
X149720667Y-63306306D01*
X149690000Y-63420756D01*
X149690000Y-63539244D01*
X149720667Y-63653694D01*
X149764722Y-63730000D01*
X148240001Y-63730000D01*
X148240001Y-64053308D01*
X148240002Y-64053323D01*
X148250145Y-64152608D01*
X148303453Y-64313482D01*
X148303458Y-64313493D01*
X148392425Y-64457729D01*
X148392428Y-64457733D01*
X148512268Y-64577573D01*
X148512272Y-64577576D01*
X148656508Y-64666543D01*
X148656519Y-64666548D01*
X148817394Y-64719856D01*
X148916678Y-64730000D01*
X149890000Y-64730000D01*
X149890000Y-63855278D01*
X149966306Y-63899333D01*
X150080756Y-63930000D01*
X150199244Y-63930000D01*
X150313694Y-63899333D01*
X150390000Y-63855278D01*
X150390000Y-64730000D01*
X151363308Y-64730000D01*
X151363324Y-64729999D01*
X151462608Y-64719856D01*
X151623482Y-64666548D01*
X151623493Y-64666543D01*
X151767729Y-64577576D01*
X151767733Y-64577573D01*
X151887573Y-64457733D01*
X151887576Y-64457729D01*
X151976543Y-64313493D01*
X151976548Y-64313482D01*
X152029856Y-64152607D01*
X152040000Y-64053323D01*
X152040000Y-63730000D01*
X150515278Y-63730000D01*
X150559333Y-63653694D01*
X150590000Y-63539244D01*
X150590000Y-63420756D01*
X150559333Y-63306306D01*
X150515278Y-63230000D01*
X152039999Y-63230000D01*
X152039999Y-62921507D01*
X163779500Y-62921507D01*
X163779500Y-64038494D01*
X163795279Y-64138122D01*
X163856473Y-64258222D01*
X163856476Y-64258226D01*
X163951774Y-64353524D01*
X163951778Y-64353527D01*
X164071878Y-64414721D01*
X164171507Y-64430500D01*
X164171512Y-64430500D01*
X166588493Y-64430500D01*
X166688121Y-64414721D01*
X166688124Y-64414720D01*
X166688126Y-64414719D01*
X166808220Y-64353528D01*
X166808221Y-64353527D01*
X166808225Y-64353524D01*
X166903523Y-64258226D01*
X166903526Y-64258222D01*
X166903528Y-64258220D01*
X166964719Y-64138126D01*
X166964720Y-64138122D01*
X166980500Y-64038494D01*
X166980500Y-62921507D01*
X166964720Y-62821879D01*
X166964719Y-62821879D01*
X166964719Y-62821874D01*
X166903528Y-62701780D01*
X166808220Y-62606472D01*
X166688126Y-62545281D01*
X166688121Y-62545281D01*
X166688121Y-62545280D01*
X166588493Y-62529500D01*
X166588488Y-62529500D01*
X164171512Y-62529500D01*
X164171507Y-62529500D01*
X164071878Y-62545280D01*
X164071876Y-62545281D01*
X164071874Y-62545281D01*
X163951780Y-62606472D01*
X163951778Y-62606474D01*
X163951774Y-62606477D01*
X163856476Y-62701775D01*
X163856473Y-62701779D01*
X163856472Y-62701780D01*
X163795281Y-62821874D01*
X163795280Y-62821876D01*
X163795279Y-62821879D01*
X163779500Y-62921507D01*
X152039999Y-62921507D01*
X152039999Y-62906678D01*
X152029856Y-62807393D01*
X151976548Y-62646519D01*
X151976543Y-62646508D01*
X151887576Y-62502272D01*
X151887573Y-62502268D01*
X151767733Y-62382428D01*
X151767729Y-62382425D01*
X151623493Y-62293458D01*
X151623482Y-62293453D01*
X151462607Y-62240145D01*
X151363317Y-62230001D01*
X150390000Y-62230001D01*
X150390000Y-63104723D01*
X150313694Y-63060667D01*
X150199244Y-63030000D01*
X150080756Y-63030000D01*
X149966306Y-63060667D01*
X149890000Y-63104723D01*
X149890000Y-62230001D01*
X148916692Y-62230001D01*
X148916678Y-62230002D01*
X148817393Y-62240145D01*
X148656519Y-62293453D01*
X148656508Y-62293458D01*
X148512272Y-62382425D01*
X148512268Y-62382428D01*
X148392428Y-62502268D01*
X148392425Y-62502272D01*
X148303458Y-62646508D01*
X148303453Y-62646519D01*
X148250145Y-62807394D01*
X148240001Y-62906678D01*
X148240000Y-62906691D01*
X141549778Y-62906691D01*
X141570743Y-62856076D01*
X141570743Y-62856075D01*
X141719927Y-62495915D01*
X141719931Y-62495904D01*
X141898827Y-61968897D01*
X141898831Y-61968882D01*
X142042870Y-61431320D01*
X142042880Y-61431280D01*
X142151454Y-60885445D01*
X142151456Y-60885434D01*
X142224100Y-60333647D01*
X142238339Y-60116390D01*
X142262366Y-60050782D01*
X142318050Y-60008578D01*
X142362074Y-60000500D01*
X148496299Y-60000500D01*
X148563338Y-60020185D01*
G37*
%TD.AperFunction*%
%TD*%
M02*
